<svg xmlns="http://www.w3.org/2000/svg" xmlns:xlink="http://www.w3.org/1999/xlink" width="500" zoomAndPan="magnify" viewBox="0 0 375 374.999991" height="500" preserveAspectRatio="xMidYMid meet" version="1.0"><defs><clipPath id="75297878bd"><path d="M 78.421875 37 L 296.671875 37 L 296.671875 276.75 L 78.421875 276.75 Z M 78.421875 37 " clip-rule="nonzero"/></clipPath><clipPath id="d55ad2d252"><path d="M 195 146 L 359 146 L 359 375 L 195 375 Z M 195 146 " clip-rule="nonzero"/></clipPath><clipPath id="b850c67fac"><path d="M 189.007812 365.136719 L 326.125 141.292969 L 368.335938 167.152344 L 231.21875 390.992188 Z M 189.007812 365.136719 " clip-rule="nonzero"/></clipPath><clipPath id="63b083a8af"><path d="M 189.007812 365.136719 L 326.125 141.292969 L 368.335938 167.152344 L 231.21875 390.992188 Z M 189.007812 365.136719 " clip-rule="nonzero"/></clipPath></defs><rect x="-37.5" width="450" fill="#ffffff" y="-37.499999" height="449.999989" fill-opacity="1"/><rect x="-37.5" width="450" fill="#ffffff" y="-37.499999" height="449.999989" fill-opacity="1"/><g clip-path="url(#75297878bd)"><path fill="#42026a" d="M 221.511719 156.777344 L 295.664062 45.550781 C 296.773438 43.882812 296.882812 41.738281 295.9375 39.96875 C 294.988281 38.203125 293.144531 37.09375 291.136719 37.09375 L 251.207031 37.09375 C 249.425781 37.09375 247.757812 37.964844 246.738281 39.425781 L 187.773438 124.136719 L 128.800781 39.425781 C 127.78125 37.964844 126.117188 37.09375 124.339844 37.09375 L 84.40625 37.09375 C 82.398438 37.09375 80.554688 38.195312 79.609375 39.964844 C 78.660156 41.734375 78.769531 43.882812 79.878906 45.546875 L 154.03125 156.777344 L 79.878906 268.007812 C 78.769531 269.675781 78.660156 271.820312 79.609375 273.589844 C 80.554688 275.355469 82.398438 276.464844 84.40625 276.464844 L 124.339844 276.464844 C 126.117188 276.464844 127.789062 275.59375 128.804688 274.132812 L 187.773438 189.421875 L 246.746094 274.132812 C 247.761719 275.59375 249.425781 276.464844 251.207031 276.464844 L 291.136719 276.464844 C 293.144531 276.464844 294.988281 275.363281 295.9375 273.59375 C 296.882812 271.824219 296.773438 269.675781 295.664062 268.011719 Z M 221.511719 156.777344 " fill-opacity="1" fill-rule="nonzero"/></g><g clip-path="url(#d55ad2d252)"><g clip-path="url(#b850c67fac)"><g clip-path="url(#63b083a8af)"><path fill="#42026a" d="M 324.605469 152.183594 C 323.375 153.1875 322.167969 154.78125 320.960938 156.421875 C 320.945312 156.25 320.835938 156.121094 320.65625 156.027344 C 320.03125 156.976562 320.113281 157.585938 319.386719 158.585938 C 319.378906 158.132812 319.050781 158.289062 318.8125 158.859375 C 318.742188 158.40625 319.472656 157.558594 319.746094 157.761719 C 319.835938 157.554688 319.640625 157.488281 319.546875 157.644531 C 321.191406 155.257812 322.339844 152.464844 324.054688 150.609375 C 322.4375 151.324219 319.988281 155.363281 318.351562 156.921875 C 318.191406 156.664062 318.820312 155.921875 319.007812 156.28125 C 319.03125 156.019531 319.253906 155.65625 319.078125 155.492188 C 320.40625 154.046875 321.675781 152.253906 322.59375 150.558594 C 324.453125 149.121094 326.28125 146.769531 328.1875 146.460938 C 329.035156 146.890625 329.332031 147.367188 330.082031 147.605469 C 330.628906 148.601562 331.109375 149.628906 331.082031 150.902344 C 332.304688 150.742188 333.15625 150.734375 334.019531 151.21875 C 334.0625 151.515625 333.703125 152.558594 334.242188 151.976562 C 334.175781 152.367188 334.101562 152.765625 334.09375 153.128906 C 334.398438 153.210938 334.933594 152.492188 334.964844 153.03125 C 334.726562 153.609375 334.464844 153.527344 334.222656 154.039062 C 334.875 154.277344 335.800781 153.316406 336.734375 153.476562 C 337.886719 153.675781 338.574219 155.042969 339.742188 155.703125 C 338.84375 157.191406 340.628906 157.558594 339.203125 159.527344 C 340.796875 158.355469 342.84375 156.480469 344.085938 154.585938 C 344.699219 154.484375 346.070312 154.636719 345.878906 155.664062 C 346.167969 155.597656 346.457031 155.472656 346.746094 155.359375 C 346.796875 155.824219 345.8125 156.910156 346.601562 156.722656 C 345.921875 158.386719 344.367188 160.125 344.546875 161.707031 C 344.8125 161.847656 345.050781 161.238281 345.308594 161.128906 C 345.589844 161.234375 345.714844 161.761719 346.011719 161.757812 C 346.738281 161.035156 346.652344 161.5625 347.144531 160.78125 C 347.304688 161.136719 347.339844 161.554688 347 162.148438 C 347.542969 161.839844 348.058594 160.992188 348.617188 161.046875 C 348.03125 163.0625 347.246094 163.621094 346.15625 165.582031 C 348.339844 163.148438 350.535156 161.125 352.742188 159.386719 C 353.195312 159.621094 353.648438 159.859375 353.359375 160.171875 C 353.84375 160.074219 353.75 159.710938 353.714844 159.351562 C 354.671875 159.707031 355.25 159.945312 356.253906 159.425781 C 356.777344 160.160156 355.851562 161.042969 355.476562 162.070312 C 356.035156 162.226562 356.589844 162.28125 357.113281 161.605469 C 357.726562 162.632812 356.023438 165.132812 355.828125 166.222656 C 356.632812 166.238281 356.722656 164.988281 357.109375 164.089844 C 357.386719 164.546875 357.625 163.949219 357.890625 164.148438 C 356.339844 166.902344 357.007812 167.644531 355.003906 170.292969 C 357.542969 171.949219 357.679688 174.765625 358.964844 177.027344 C 357.914062 178.199219 358 179.046875 358.003906 179.976562 C 358.238281 180.214844 358.421875 179.101562 358.660156 179.335938 C 358.28125 180.734375 357.207031 182.363281 356.308594 184.144531 C 355.46875 185.804688 354.652344 187.144531 353.628906 187.917969 C 349.835938 196.320312 345.3125 201.957031 340.738281 210.4375 C 340.335938 210.378906 340.90625 209.855469 340.613281 209.742188 C 339.058594 212.257812 337.09375 217.132812 335.027344 219.238281 C 334.824219 219.785156 334.574219 219.257812 334.355469 219.453125 C 333.242188 221.40625 332.824219 223.523438 331.421875 224.324219 C 329.601562 226.957031 328.5625 230.476562 326.742188 232.089844 C 322.003906 240.132812 318.433594 246.769531 313.601562 253.003906 C 311.085938 256.699219 309.445312 259.96875 306.890625 263.6875 C 306.746094 262.859375 307.515625 261.585938 308.035156 260.4375 C 307.011719 261.734375 305.582031 264 304.542969 266.007812 C 301.066406 272.722656 296.8125 279.332031 292.523438 285.730469 C 292.109375 285.894531 292.4375 285.625 292.316406 285.398438 C 291.207031 286.492188 290.824219 288.121094 290.222656 289.324219 C 289.863281 289.496094 289.964844 289.191406 289.726562 289.023438 C 288.804688 290.242188 289.464844 290.121094 289.113281 290.9375 C 288.777344 291.699219 288.984375 290.570312 288.632812 291.058594 C 288.390625 291.355469 288.601562 291.4375 288.75 291.546875 C 287.546875 293.199219 286.609375 294.53125 285.53125 296.660156 C 285.199219 297.316406 285.351562 296.390625 284.949219 296.722656 C 283.355469 299.25 281.71875 303.21875 279.738281 305.824219 C 278.804688 307.058594 278.4375 307.984375 277.539062 309.476562 C 276.769531 310.753906 275.488281 311.679688 274.457031 313.011719 C 273.613281 314.109375 272.949219 316.105469 271.617188 317.730469 C 271.492188 317.609375 271.855469 317.257812 271.691406 317.15625 C 268.710938 322.417969 264.863281 328.757812 262.386719 333.953125 C 258.402344 339.609375 255.191406 347.007812 251.875 352.304688 C 251.804688 352.082031 251.890625 351.789062 252.132812 351.421875 C 248.542969 356.386719 243.574219 364.34375 239.726562 371.117188 C 239.394531 371.78125 239.835938 372.074219 239.207031 372.878906 C 239.53125 373.628906 238.824219 374.871094 238.539062 375.796875 C 238.488281 375.957031 238.472656 376.570312 238.375 376.738281 C 237 379.21875 235.605469 377.375 233.851562 378.160156 C 233.703125 379.050781 233.367188 379.863281 232.566406 380.289062 C 231.972656 379.855469 232.707031 378.785156 232.488281 378.167969 C 232.230469 378.277344 231.648438 378.824219 231.941406 379.078125 C 231.527344 379.300781 231.214844 379.101562 231.242188 378.660156 C 230.863281 379.164062 231.371094 379.242188 230.992188 379.75 C 230.742188 379.691406 230.789062 379.488281 230.683594 379.355469 C 230.332031 379.808594 230.585938 379.941406 230.222656 380.121094 C 229.578125 379.78125 229.085938 379.371094 229.195312 378.667969 C 226.699219 381.328125 223.574219 382.8125 220.746094 384.578125 C 220.175781 384.132812 220.484375 383.265625 219.902344 382.824219 C 220.675781 380.746094 221.222656 379.4375 222.511719 377.136719 C 222.535156 376.65625 221.785156 377.078125 221.804688 376.503906 C 222.289062 375.925781 222.804688 375.015625 222.601562 374.285156 C 222.117188 374.753906 222.0625 375.097656 221.484375 375.683594 C 221.3125 375.445312 221.523438 375.019531 221.351562 374.777344 C 220.195312 375.390625 220.246094 373.316406 219.257812 373.515625 C 219.183594 373.117188 219.9375 372.757812 220.183594 372.207031 C 219.390625 372.816406 220.503906 371.285156 220.425781 370.898438 C 220.179688 370.839844 219.875 372.300781 219.675781 371.691406 C 218.90625 373.304688 218.957031 372.722656 218.300781 373.976562 C 216.90625 372.867188 217.75 370.179688 218.535156 367.269531 C 218.023438 367.433594 217.097656 367.652344 216.871094 367.097656 C 216.558594 367.1875 216.523438 368.050781 216.335938 368.4375 C 216.042969 368.253906 216.238281 367.835938 216.015625 367.621094 C 215.554688 367.832031 215.992188 367.992188 215.65625 368.441406 C 215.34375 367.636719 216.035156 366.929688 216.152344 366.042969 C 215.351562 366.5 215.273438 367.441406 214.777344 368.324219 C 214.65625 368.164062 214.976562 367.792969 214.5625 367.78125 C 214.28125 368.203125 214.71875 368.28125 214.210938 368.8125 C 213.851562 368.699219 214.265625 368.207031 213.796875 368.148438 C 213.433594 369 212.945312 370.007812 212.425781 370.640625 C 212.0625 370.421875 212.367188 369.878906 212.289062 369.519531 C 211.820312 369.925781 211.867188 370.4375 211.472656 371.101562 C 210.996094 370.894531 210.535156 370.617188 211.117188 369.4375 C 210.855469 369.34375 210.75 369.179688 210.707031 368.980469 C 210.039062 369.449219 210.039062 369.832031 209.132812 371.144531 C 208.542969 371.113281 208.742188 370.042969 208.3125 370.027344 C 207.332031 370.003906 206.953125 370.929688 206.242188 372.109375 C 206.140625 371.375 205.746094 371.445312 205.707031 370.746094 C 204.945312 371.320312 204.917969 370.539062 204.316406 370.117188 C 204.46875 369.835938 204.632812 369.871094 204.785156 369.570312 C 203.933594 368.574219 205.980469 366.183594 205.105469 365.203125 C 204.480469 365.78125 203.792969 364.765625 203.160156 365.273438 C 202.378906 363.632812 199.578125 362.964844 201.210938 360.160156 C 200.6875 360.058594 200.183594 360.429688 199.699219 361.320312 C 199.328125 360.902344 198.984375 361.328125 198.648438 361.929688 C 198.292969 361.378906 198.3125 361.265625 197.667969 361.757812 C 197.214844 360.535156 196.226562 360.171875 195.410156 358.738281 C 199.589844 352.6875 204.894531 343.992188 208.585938 338.671875 C 208.671875 338.523438 208.535156 338.480469 208.476562 338.398438 C 209.761719 337.535156 210.578125 335.480469 210.945312 334.078125 C 210.976562 334.207031 211.011719 334.332031 211.15625 334.410156 C 211.625 333.785156 211.503906 333.449219 211.972656 332.828125 C 212.980469 331.652344 215.3125 326.445312 217.164062 323.304688 C 219.195312 319.863281 220.90625 316.027344 221.492188 314.089844 C 222.675781 314.066406 223.410156 312.132812 224.46875 310.28125 C 224.707031 309.796875 224.988281 310.242188 225.234375 309.914062 C 225.359375 308.710938 227.691406 306.429688 227.777344 305.015625 C 227.574219 304.765625 227.382812 304.859375 227.203125 305.289062 C 227.507812 304 228.71875 302.890625 229.203125 301.515625 C 229.042969 301.554688 228.886719 301.804688 228.71875 301.640625 C 230.101562 299.636719 231.773438 297.636719 233.109375 296.609375 C 233.355469 295.746094 233.941406 295.480469 234.410156 294.902344 C 235.746094 293.246094 236.957031 290.246094 238.242188 288.085938 C 242.207031 281.429688 246.726562 275.273438 250.085938 268.878906 C 250.25 268.839844 250.402344 268.589844 250.570312 268.753906 C 253.433594 263.910156 255.417969 259.867188 258.339844 255.183594 C 258.105469 254.976562 257.890625 255.34375 257.671875 255.609375 C 258.304688 254.339844 259.371094 253.433594 260.1875 252.5625 C 260.136719 251.089844 261.425781 250.757812 262.304688 249.277344 C 262.578125 249.324219 262.273438 249.652344 262.421875 249.761719 C 265.78125 245.042969 266.9375 239.6875 270.832031 235.125 C 270.777344 234.824219 270.863281 234.460938 271.082031 234.03125 C 271.632812 234.558594 270.589844 235.851562 270.40625 236.734375 C 271.84375 234.421875 273.234375 231.417969 275.472656 229 C 275.128906 227.472656 277.375 225.074219 278.449219 222.707031 C 278.636719 222.761719 278.535156 222.953125 278.65625 223.039062 C 279.085938 222.316406 279.527344 221.988281 279.957031 221.332031 C 279.625 221.113281 279.320312 221.71875 279.015625 222.214844 C 279.265625 220.707031 281.148438 219.527344 280.523438 218.355469 C 281.144531 217.605469 281.480469 217.054688 281.425781 216.40625 C 281.613281 216.464844 281.511719 216.65625 281.632812 216.742188 C 284.753906 212.886719 287.609375 208.070312 290.941406 202.644531 C 290.515625 202.480469 290.136719 203.585938 289.71875 203.773438 C 292.375 198.324219 297.398438 193.421875 299.527344 187.492188 C 298.757812 188.054688 297.777344 189.789062 297.296875 190.296875 C 297.046875 190.574219 296.816406 191.367188 296.554688 191.296875 C 297.652344 189.59375 297.722656 188.816406 298.648438 187.371094 C 298.679688 187.070312 298.515625 186.863281 298.808594 186.433594 C 298.816406 186.890625 299.140625 186.527344 299.40625 186.792969 C 299.902344 186.195312 299.804688 185.882812 299.941406 185.457031 C 300.886719 184.890625 301.183594 184.015625 301.5 182.867188 C 305.683594 178.199219 308.949219 170.960938 312.914062 165.269531 C 312.53125 166.996094 310.738281 168.8125 310.578125 170.5 C 310.996094 170.394531 311.363281 168.914062 311.8125 169.582031 C 312.265625 168.96875 311.859375 168.765625 312.25 168.183594 C 312.496094 168.070312 312.734375 168.210938 312.746094 168.488281 C 313.261719 167.105469 314.703125 164.851562 316.171875 163.707031 C 315.898438 164.160156 315.621094 164.617188 315.34375 165.074219 C 317.511719 162.070312 321.066406 157.558594 323.203125 153.835938 C 323.914062 153.816406 323.613281 153.203125 324.605469 152.183594 Z M 256.1875 260.105469 C 256.59375 259.324219 257.199219 258.601562 257.136719 259.433594 C 257.550781 258.839844 257.386719 258.523438 257.570312 258.039062 C 257.175781 258.679688 257.125 258.261719 257.078125 257.949219 C 257.085938 258.757812 255.589844 259.617188 256.1875 260.105469 Z M 300.648438 186.082031 C 300.511719 186.261719 300.304688 186.300781 300.5625 186.445312 C 301.019531 185.660156 301.382812 184.867188 301.753906 184.46875 C 301.304688 184.257812 300.601562 185.566406 300.648438 186.082031 Z M 277.535156 229.410156 C 277.808594 229.777344 278.257812 228.6875 277.992188 228.648438 C 277.753906 229.019531 277.523438 229.007812 277.535156 229.410156 Z M 278.375 228.464844 C 278.621094 227.914062 279.355469 227.128906 279.285156 226.730469 C 278.742188 227.507812 278.261719 227.679688 278.375 228.464844 Z M 269.300781 253.902344 C 269.863281 253.652344 270.019531 252.570312 270.425781 252.714844 C 270.707031 252.265625 270.601562 251.761719 270.96875 251.585938 C 270.835938 251.507812 270.707031 251.429688 270.570312 251.347656 C 270.21875 252.164062 269.511719 253.152344 269.300781 253.902344 Z M 317.597656 185.921875 C 317.773438 185.40625 318.1875 184.769531 317.929688 184.464844 C 317.578125 185.066406 317.046875 185.753906 317.597656 185.921875 Z M 320.3125 182.992188 C 321.398438 180.777344 319.46875 183.726562 319.578125 184.210938 C 319.863281 183.691406 320.148438 183.324219 320.3125 182.992188 Z M 242.632812 324.335938 C 242.789062 324.265625 243.300781 323.46875 242.984375 323.304688 C 242.746094 323.707031 242.390625 324.164062 242.632812 324.335938 Z M 275.742188 282.464844 C 275.492188 282.046875 274.800781 283.128906 274.898438 283.414062 C 275.164062 282.757812 275.476562 283.234375 275.742188 282.464844 Z M 277.207031 280.03125 C 278.203125 278.789062 278.714844 277.558594 279.78125 275.980469 C 279.132812 276.726562 277.339844 278.960938 277.207031 280.03125 Z M 282.078125 272.175781 C 281.921875 272.410156 281.773438 272.714844 281.601562 272.511719 C 281.25 273.558594 280.171875 274.816406 279.765625 275.558594 C 281.117188 274.09375 281.671875 273.34375 282.078125 272.175781 Z M 272.847656 288.398438 C 272.375 289.527344 271.070312 290.722656 271.203125 291.347656 C 272.558594 289.734375 275.070312 285.875 275.878906 283.585938 C 274.796875 285.125 273.960938 285.960938 273.207031 287.574219 C 274.289062 286.621094 272.4375 288.550781 272.464844 288.582031 C 272.589844 288.425781 272.71875 288.414062 272.847656 288.398438 Z M 283.117188 271.351562 C 283.332031 270.996094 283.542969 270.644531 283.757812 270.289062 C 283.394531 269.980469 282.96875 271.21875 283.117188 271.351562 Z M 276.15625 283.128906 C 276.105469 283.226562 276.0625 283.320312 276.164062 283.34375 C 276.617188 282.707031 277.75 280.5625 276.703125 282.21875 C 276.296875 282.402344 276.496094 282.761719 276.148438 282.917969 C 276.082031 282.890625 276.015625 282.871094 275.953125 283.011719 C 276.023438 283.050781 276.089844 283.089844 276.15625 283.128906 Z M 271.527344 292.164062 C 271.632812 292.441406 271.414062 292.871094 271.46875 293.167969 C 273.640625 289.964844 276.953125 284.253906 279.167969 280.382812 C 276.574219 283.417969 274.304688 288.394531 271.527344 292.164062 Z M 342.144531 185.773438 C 343.726562 184.601562 345.34375 182.484375 346.425781 180.472656 C 345.121094 182.40625 342.8125 183.992188 342.144531 185.773438 Z M 339.105469 193.074219 C 339.703125 192.765625 340.429688 191.441406 340.484375 190.789062 C 340.683594 190.96875 340.878906 190.980469 341.066406 190.726562 C 341.019531 190.339844 340.800781 190.722656 340.757812 190.332031 C 339.851562 190.933594 339.511719 191.945312 339.105469 193.074219 Z M 337.554688 195.871094 C 337.890625 195.242188 338.242188 195.136719 338.574219 194.410156 C 338.035156 194.152344 337.355469 195.734375 337.554688 195.871094 Z M 346.429688 183.171875 C 346.816406 182.730469 347.074219 182.269531 347.628906 181.40625 C 347.164062 181.140625 346.65625 182.613281 346.429688 183.171875 Z M 268.328125 320.9375 C 268.269531 321.417969 267.25 322.296875 267.234375 322.976562 C 267.742188 322.824219 268.550781 321.378906 268.328125 320.9375 Z M 309.210938 255.335938 C 308.945312 255.9375 308.457031 256.03125 308.476562 256.554688 C 309.269531 256.265625 309.90625 254.917969 310.515625 253.84375 C 311.503906 252.109375 312.238281 250.347656 313.441406 248.761719 C 311.914062 250.039062 309.890625 254.019531 309.210938 255.335938 Z M 314.808594 246.265625 C 315.335938 245.671875 316.183594 244.039062 316.535156 242.945312 C 315.972656 244.132812 314.308594 245.742188 314.808594 246.265625 Z M 320.203125 236.859375 C 320.625 237.160156 319.261719 238.320312 319.683594 238.621094 C 320.308594 237.960938 320.503906 237.335938 320.78125 236.582031 C 321.085938 236.667969 321.1875 236.664062 321.652344 236.484375 C 322.710938 232.800781 325.972656 230.59375 326.945312 227.019531 C 324.46875 230.097656 322.816406 233.878906 320.203125 236.859375 Z M 303.730469 265.105469 C 303.261719 265.875 302.238281 266.59375 302.648438 267.355469 C 304.476562 264.726562 306.0625 261.96875 307.199219 258.898438 C 305.984375 260.859375 304.894531 263.195312 303.730469 265.105469 Z M 303.730469 265.105469 " fill-opacity="1" fill-rule="evenodd"/></g></g></g></svg>