<svg xmlns="http://www.w3.org/2000/svg" xmlns:xlink="http://www.w3.org/1999/xlink" width="500" zoomAndPan="magnify" viewBox="0 0 375 374.999991" height="500" preserveAspectRatio="xMidYMid meet" version="1.0"><defs><linearGradient x1="0" gradientTransform="matrix(0.75, 0, 0, 0.75, 0.0000045, 0)" y1="250" x2="499.999979" gradientUnits="userSpaceOnUse" y2="250" id="5b07b5d82b"><stop stop-opacity="1" stop-color="rgb(0%, 0%, 0%)" offset="0"/><stop stop-opacity="1" stop-color="rgb(0.0808716%, 0.0778198%, 0.312805%)" offset="0.00390625"/><stop stop-opacity="1" stop-color="rgb(0.161743%, 0.15564%, 0.627136%)" offset="0.0078125"/><stop stop-opacity="1" stop-color="rgb(0.242615%, 0.233459%, 0.941467%)" offset="0.0117187"/><stop stop-opacity="1" stop-color="rgb(0.323486%, 0.311279%, 1.255798%)" offset="0.015625"/><stop stop-opacity="1" stop-color="rgb(0.404358%, 0.389099%, 1.568604%)" offset="0.0195312"/><stop stop-opacity="1" stop-color="rgb(0.486755%, 0.468445%, 1.882935%)" offset="0.0234375"/><stop stop-opacity="1" stop-color="rgb(0.567627%, 0.546265%, 2.197266%)" offset="0.0273438"/><stop stop-opacity="1" stop-color="rgb(0.648499%, 0.624084%, 2.511597%)" offset="0.03125"/><stop stop-opacity="1" stop-color="rgb(0.72937%, 0.701904%, 2.825928%)" offset="0.0351562"/><stop stop-opacity="1" stop-color="rgb(0.811768%, 0.779724%, 3.140259%)" offset="0.0390625"/><stop stop-opacity="1" stop-color="rgb(0.892639%, 0.857544%, 3.453064%)" offset="0.0429687"/><stop stop-opacity="1" stop-color="rgb(0.973511%, 0.93689%, 3.767395%)" offset="0.046875"/><stop stop-opacity="1" stop-color="rgb(1.054382%, 1.014709%, 4.081726%)" offset="0.0507812"/><stop stop-opacity="1" stop-color="rgb(1.13678%, 1.092529%, 4.396057%)" offset="0.0546875"/><stop stop-opacity="1" stop-color="rgb(1.217651%, 1.170349%, 4.710388%)" offset="0.0585938"/><stop stop-opacity="1" stop-color="rgb(1.298523%, 1.249695%, 5.024719%)" offset="0.0625"/><stop stop-opacity="1" stop-color="rgb(1.379395%, 1.327515%, 5.337524%)" offset="0.0664062"/><stop stop-opacity="1" stop-color="rgb(1.461792%, 1.405334%, 5.651855%)" offset="0.0703125"/><stop stop-opacity="1" stop-color="rgb(1.542664%, 1.483154%, 5.966187%)" offset="0.0742187"/><stop stop-opacity="1" stop-color="rgb(1.623535%, 1.560974%, 6.280518%)" offset="0.078125"/><stop stop-opacity="1" stop-color="rgb(1.704407%, 1.638794%, 6.594849%)" offset="0.0820312"/><stop stop-opacity="1" stop-color="rgb(1.786804%, 1.71814%, 6.90918%)" offset="0.0859375"/><stop stop-opacity="1" stop-color="rgb(1.867676%, 1.795959%, 7.221985%)" offset="0.0898437"/><stop stop-opacity="1" stop-color="rgb(1.948547%, 1.873779%, 7.536316%)" offset="0.09375"/><stop stop-opacity="1" stop-color="rgb(2.029419%, 1.951599%, 7.850647%)" offset="0.0976562"/><stop stop-opacity="1" stop-color="rgb(2.111816%, 2.030945%, 8.164978%)" offset="0.101562"/><stop stop-opacity="1" stop-color="rgb(2.192688%, 2.108765%, 8.479309%)" offset="0.105469"/><stop stop-opacity="1" stop-color="rgb(2.27356%, 2.186584%, 8.79364%)" offset="0.109375"/><stop stop-opacity="1" stop-color="rgb(2.354431%, 2.264404%, 9.106445%)" offset="0.113281"/><stop stop-opacity="1" stop-color="rgb(2.436829%, 2.342224%, 9.420776%)" offset="0.117188"/><stop stop-opacity="1" stop-color="rgb(2.5177%, 2.420044%, 9.735107%)" offset="0.121094"/><stop stop-opacity="1" stop-color="rgb(2.598572%, 2.49939%, 10.049438%)" offset="0.125"/><stop stop-opacity="1" stop-color="rgb(2.679443%, 2.577209%, 10.36377%)" offset="0.128906"/><stop stop-opacity="1" stop-color="rgb(2.761841%, 2.655029%, 10.678101%)" offset="0.132812"/><stop stop-opacity="1" stop-color="rgb(2.842712%, 2.732849%, 10.990906%)" offset="0.136719"/><stop stop-opacity="1" stop-color="rgb(2.923584%, 2.812195%, 11.305237%)" offset="0.140625"/><stop stop-opacity="1" stop-color="rgb(3.004456%, 2.890015%, 11.619568%)" offset="0.144531"/><stop stop-opacity="1" stop-color="rgb(3.086853%, 2.967834%, 11.933899%)" offset="0.148437"/><stop stop-opacity="1" stop-color="rgb(3.167725%, 3.045654%, 12.246704%)" offset="0.152344"/><stop stop-opacity="1" stop-color="rgb(3.248596%, 3.123474%, 12.561035%)" offset="0.15625"/><stop stop-opacity="1" stop-color="rgb(3.329468%, 3.201294%, 12.875366%)" offset="0.160156"/><stop stop-opacity="1" stop-color="rgb(3.411865%, 3.28064%, 13.189697%)" offset="0.164062"/><stop stop-opacity="1" stop-color="rgb(3.492737%, 3.358459%, 13.504028%)" offset="0.167969"/><stop stop-opacity="1" stop-color="rgb(3.573608%, 3.436279%, 13.818359%)" offset="0.171875"/><stop stop-opacity="1" stop-color="rgb(3.65448%, 3.514099%, 14.131165%)" offset="0.175781"/><stop stop-opacity="1" stop-color="rgb(3.736877%, 3.593445%, 14.445496%)" offset="0.179687"/><stop stop-opacity="1" stop-color="rgb(3.817749%, 3.671265%, 14.759827%)" offset="0.183594"/><stop stop-opacity="1" stop-color="rgb(3.898621%, 3.749084%, 15.074158%)" offset="0.1875"/><stop stop-opacity="1" stop-color="rgb(3.979492%, 3.826904%, 15.388489%)" offset="0.191406"/><stop stop-opacity="1" stop-color="rgb(4.06189%, 3.904724%, 15.70282%)" offset="0.195312"/><stop stop-opacity="1" stop-color="rgb(4.142761%, 3.982544%, 16.015625%)" offset="0.199219"/><stop stop-opacity="1" stop-color="rgb(4.223633%, 4.06189%, 16.329956%)" offset="0.203125"/><stop stop-opacity="1" stop-color="rgb(4.304504%, 4.139709%, 16.644287%)" offset="0.207031"/><stop stop-opacity="1" stop-color="rgb(4.386902%, 4.217529%, 16.958618%)" offset="0.210938"/><stop stop-opacity="1" stop-color="rgb(4.467773%, 4.295349%, 17.272949%)" offset="0.214844"/><stop stop-opacity="1" stop-color="rgb(4.548645%, 4.374695%, 17.58728%)" offset="0.21875"/><stop stop-opacity="1" stop-color="rgb(4.629517%, 4.452515%, 17.900085%)" offset="0.222656"/><stop stop-opacity="1" stop-color="rgb(4.711914%, 4.530334%, 18.214417%)" offset="0.226562"/><stop stop-opacity="1" stop-color="rgb(4.792786%, 4.608154%, 18.528748%)" offset="0.230469"/><stop stop-opacity="1" stop-color="rgb(4.873657%, 4.685974%, 18.843079%)" offset="0.234375"/><stop stop-opacity="1" stop-color="rgb(4.954529%, 4.763794%, 19.15741%)" offset="0.238281"/><stop stop-opacity="1" stop-color="rgb(5.036926%, 4.84314%, 19.471741%)" offset="0.242188"/><stop stop-opacity="1" stop-color="rgb(5.117798%, 4.920959%, 19.784546%)" offset="0.246094"/><stop stop-opacity="1" stop-color="rgb(5.198669%, 4.998779%, 20.098877%)" offset="0.25"/><stop stop-opacity="1" stop-color="rgb(5.279541%, 5.076599%, 20.413208%)" offset="0.253906"/><stop stop-opacity="1" stop-color="rgb(5.361938%, 5.155945%, 20.727539%)" offset="0.257812"/><stop stop-opacity="1" stop-color="rgb(5.44281%, 5.233765%, 21.04187%)" offset="0.261719"/><stop stop-opacity="1" stop-color="rgb(5.523682%, 5.311584%, 21.356201%)" offset="0.265625"/><stop stop-opacity="1" stop-color="rgb(5.604553%, 5.389404%, 21.669006%)" offset="0.269531"/><stop stop-opacity="1" stop-color="rgb(5.686951%, 5.467224%, 21.983337%)" offset="0.273437"/><stop stop-opacity="1" stop-color="rgb(5.767822%, 5.545044%, 22.297668%)" offset="0.277344"/><stop stop-opacity="1" stop-color="rgb(5.848694%, 5.62439%, 22.612%)" offset="0.28125"/><stop stop-opacity="1" stop-color="rgb(5.929565%, 5.702209%, 22.924805%)" offset="0.285156"/><stop stop-opacity="1" stop-color="rgb(6.011963%, 5.780029%, 23.239136%)" offset="0.289062"/><stop stop-opacity="1" stop-color="rgb(6.092834%, 5.857849%, 23.553467%)" offset="0.292969"/><stop stop-opacity="1" stop-color="rgb(6.173706%, 5.937195%, 23.867798%)" offset="0.296875"/><stop stop-opacity="1" stop-color="rgb(6.254578%, 6.015015%, 24.182129%)" offset="0.300781"/><stop stop-opacity="1" stop-color="rgb(6.336975%, 6.092834%, 24.49646%)" offset="0.304687"/><stop stop-opacity="1" stop-color="rgb(6.417847%, 6.170654%, 24.809265%)" offset="0.308594"/><stop stop-opacity="1" stop-color="rgb(6.498718%, 6.248474%, 25.123596%)" offset="0.3125"/><stop stop-opacity="1" stop-color="rgb(6.57959%, 6.326294%, 25.437927%)" offset="0.316406"/><stop stop-opacity="1" stop-color="rgb(6.661987%, 6.40564%, 25.752258%)" offset="0.320312"/><stop stop-opacity="1" stop-color="rgb(6.742859%, 6.483459%, 26.066589%)" offset="0.324219"/><stop stop-opacity="1" stop-color="rgb(6.82373%, 6.561279%, 26.38092%)" offset="0.328125"/><stop stop-opacity="1" stop-color="rgb(6.904602%, 6.639099%, 26.693726%)" offset="0.332031"/><stop stop-opacity="1" stop-color="rgb(6.987%, 6.718445%, 27.008057%)" offset="0.335937"/><stop stop-opacity="1" stop-color="rgb(7.067871%, 6.796265%, 27.322388%)" offset="0.339844"/><stop stop-opacity="1" stop-color="rgb(7.148743%, 6.874084%, 27.636719%)" offset="0.34375"/><stop stop-opacity="1" stop-color="rgb(7.229614%, 6.951904%, 27.95105%)" offset="0.347656"/><stop stop-opacity="1" stop-color="rgb(7.312012%, 7.029724%, 28.265381%)" offset="0.351562"/><stop stop-opacity="1" stop-color="rgb(7.392883%, 7.107544%, 28.578186%)" offset="0.355469"/><stop stop-opacity="1" stop-color="rgb(7.473755%, 7.18689%, 28.892517%)" offset="0.359375"/><stop stop-opacity="1" stop-color="rgb(7.554626%, 7.264709%, 29.206848%)" offset="0.363281"/><stop stop-opacity="1" stop-color="rgb(7.637024%, 7.342529%, 29.521179%)" offset="0.367187"/><stop stop-opacity="1" stop-color="rgb(7.717896%, 7.420349%, 29.83551%)" offset="0.371094"/><stop stop-opacity="1" stop-color="rgb(7.798767%, 7.499695%, 30.149841%)" offset="0.375"/><stop stop-opacity="1" stop-color="rgb(7.879639%, 7.577515%, 30.462646%)" offset="0.378906"/><stop stop-opacity="1" stop-color="rgb(7.962036%, 7.655334%, 30.776978%)" offset="0.382812"/><stop stop-opacity="1" stop-color="rgb(8.042908%, 7.733154%, 31.091309%)" offset="0.386719"/><stop stop-opacity="1" stop-color="rgb(8.123779%, 7.810974%, 31.40564%)" offset="0.390625"/><stop stop-opacity="1" stop-color="rgb(8.204651%, 7.888794%, 31.719971%)" offset="0.394531"/><stop stop-opacity="1" stop-color="rgb(8.287048%, 7.96814%, 32.034302%)" offset="0.398438"/><stop stop-opacity="1" stop-color="rgb(8.36792%, 8.045959%, 32.347107%)" offset="0.402344"/><stop stop-opacity="1" stop-color="rgb(8.448792%, 8.123779%, 32.661438%)" offset="0.40625"/><stop stop-opacity="1" stop-color="rgb(8.529663%, 8.201599%, 32.975769%)" offset="0.410156"/><stop stop-opacity="1" stop-color="rgb(8.612061%, 8.280945%, 33.2901%)" offset="0.414062"/><stop stop-opacity="1" stop-color="rgb(8.692932%, 8.358765%, 33.602905%)" offset="0.417969"/><stop stop-opacity="1" stop-color="rgb(8.773804%, 8.436584%, 33.917236%)" offset="0.421875"/><stop stop-opacity="1" stop-color="rgb(8.854675%, 8.514404%, 34.231567%)" offset="0.425781"/><stop stop-opacity="1" stop-color="rgb(8.937073%, 8.592224%, 34.545898%)" offset="0.429688"/><stop stop-opacity="1" stop-color="rgb(9.017944%, 8.670044%, 34.860229%)" offset="0.433594"/><stop stop-opacity="1" stop-color="rgb(9.098816%, 8.74939%, 35.174561%)" offset="0.4375"/><stop stop-opacity="1" stop-color="rgb(9.179688%, 8.827209%, 35.487366%)" offset="0.441406"/><stop stop-opacity="1" stop-color="rgb(9.262085%, 8.905029%, 35.801697%)" offset="0.445312"/><stop stop-opacity="1" stop-color="rgb(9.342957%, 8.982849%, 36.116028%)" offset="0.449219"/><stop stop-opacity="1" stop-color="rgb(9.423828%, 9.062195%, 36.430359%)" offset="0.453125"/><stop stop-opacity="1" stop-color="rgb(9.5047%, 9.140015%, 36.74469%)" offset="0.457031"/><stop stop-opacity="1" stop-color="rgb(9.587097%, 9.217834%, 37.059021%)" offset="0.460938"/><stop stop-opacity="1" stop-color="rgb(9.667969%, 9.295654%, 37.371826%)" offset="0.464844"/><stop stop-opacity="1" stop-color="rgb(9.74884%, 9.373474%, 37.686157%)" offset="0.46875"/><stop stop-opacity="1" stop-color="rgb(9.829712%, 9.451294%, 38.000488%)" offset="0.472656"/><stop stop-opacity="1" stop-color="rgb(9.912109%, 9.53064%, 38.314819%)" offset="0.476562"/><stop stop-opacity="1" stop-color="rgb(9.992981%, 9.608459%, 38.62915%)" offset="0.480469"/><stop stop-opacity="1" stop-color="rgb(10.073853%, 9.686279%, 38.943481%)" offset="0.484375"/><stop stop-opacity="1" stop-color="rgb(10.154724%, 9.764099%, 39.256287%)" offset="0.488281"/><stop stop-opacity="1" stop-color="rgb(10.237122%, 9.843445%, 39.570618%)" offset="0.492188"/><stop stop-opacity="1" stop-color="rgb(10.317993%, 9.921265%, 39.884949%)" offset="0.496094"/><stop stop-opacity="1" stop-color="rgb(10.398865%, 9.999084%, 40.19928%)" offset="0.5"/><stop stop-opacity="1" stop-color="rgb(10.479736%, 10.076904%, 40.513611%)" offset="0.503906"/><stop stop-opacity="1" stop-color="rgb(10.562134%, 10.154724%, 40.827942%)" offset="0.507812"/><stop stop-opacity="1" stop-color="rgb(10.643005%, 10.232544%, 41.140747%)" offset="0.511719"/><stop stop-opacity="1" stop-color="rgb(10.723877%, 10.31189%, 41.455078%)" offset="0.515625"/><stop stop-opacity="1" stop-color="rgb(10.804749%, 10.389709%, 41.769409%)" offset="0.519531"/><stop stop-opacity="1" stop-color="rgb(10.887146%, 10.467529%, 42.08374%)" offset="0.523437"/><stop stop-opacity="1" stop-color="rgb(10.968018%, 10.545349%, 42.398071%)" offset="0.527344"/><stop stop-opacity="1" stop-color="rgb(11.048889%, 10.624695%, 42.712402%)" offset="0.53125"/><stop stop-opacity="1" stop-color="rgb(11.129761%, 10.702515%, 43.025208%)" offset="0.535156"/><stop stop-opacity="1" stop-color="rgb(11.212158%, 10.780334%, 43.339539%)" offset="0.539062"/><stop stop-opacity="1" stop-color="rgb(11.29303%, 10.858154%, 43.65387%)" offset="0.542969"/><stop stop-opacity="1" stop-color="rgb(11.373901%, 10.935974%, 43.968201%)" offset="0.546875"/><stop stop-opacity="1" stop-color="rgb(11.454773%, 11.013794%, 44.282532%)" offset="0.550781"/><stop stop-opacity="1" stop-color="rgb(11.53717%, 11.09314%, 44.596863%)" offset="0.554687"/><stop stop-opacity="1" stop-color="rgb(11.618042%, 11.170959%, 44.909668%)" offset="0.558594"/><stop stop-opacity="1" stop-color="rgb(11.698914%, 11.248779%, 45.223999%)" offset="0.5625"/><stop stop-opacity="1" stop-color="rgb(11.779785%, 11.326599%, 45.53833%)" offset="0.566406"/><stop stop-opacity="1" stop-color="rgb(11.862183%, 11.405945%, 45.852661%)" offset="0.570312"/><stop stop-opacity="1" stop-color="rgb(11.943054%, 11.483765%, 46.165466%)" offset="0.574219"/><stop stop-opacity="1" stop-color="rgb(12.023926%, 11.561584%, 46.479797%)" offset="0.578125"/><stop stop-opacity="1" stop-color="rgb(12.104797%, 11.639404%, 46.794128%)" offset="0.582031"/><stop stop-opacity="1" stop-color="rgb(12.187195%, 11.717224%, 47.108459%)" offset="0.585937"/><stop stop-opacity="1" stop-color="rgb(12.268066%, 11.795044%, 47.422791%)" offset="0.589844"/><stop stop-opacity="1" stop-color="rgb(12.348938%, 11.87439%, 47.737122%)" offset="0.59375"/><stop stop-opacity="1" stop-color="rgb(12.42981%, 11.952209%, 48.049927%)" offset="0.597656"/><stop stop-opacity="1" stop-color="rgb(12.512207%, 12.030029%, 48.364258%)" offset="0.601562"/><stop stop-opacity="1" stop-color="rgb(12.593079%, 12.107849%, 48.678589%)" offset="0.605469"/><stop stop-opacity="1" stop-color="rgb(12.67395%, 12.187195%, 48.99292%)" offset="0.609375"/><stop stop-opacity="1" stop-color="rgb(12.754822%, 12.265015%, 49.307251%)" offset="0.613281"/><stop stop-opacity="1" stop-color="rgb(12.837219%, 12.342834%, 49.621582%)" offset="0.617187"/><stop stop-opacity="1" stop-color="rgb(12.918091%, 12.420654%, 49.934387%)" offset="0.621094"/><stop stop-opacity="1" stop-color="rgb(12.998962%, 12.498474%, 50.248718%)" offset="0.625"/><stop stop-opacity="1" stop-color="rgb(13.079834%, 12.576294%, 50.563049%)" offset="0.628906"/><stop stop-opacity="1" stop-color="rgb(13.162231%, 12.65564%, 50.87738%)" offset="0.632812"/><stop stop-opacity="1" stop-color="rgb(13.243103%, 12.733459%, 51.191711%)" offset="0.636719"/><stop stop-opacity="1" stop-color="rgb(13.323975%, 12.811279%, 51.506042%)" offset="0.640625"/><stop stop-opacity="1" stop-color="rgb(13.404846%, 12.889099%, 51.818848%)" offset="0.644531"/><stop stop-opacity="1" stop-color="rgb(13.487244%, 12.968445%, 52.133179%)" offset="0.648437"/><stop stop-opacity="1" stop-color="rgb(13.568115%, 13.046265%, 52.44751%)" offset="0.652344"/><stop stop-opacity="1" stop-color="rgb(13.648987%, 13.124084%, 52.761841%)" offset="0.65625"/><stop stop-opacity="1" stop-color="rgb(13.729858%, 13.201904%, 53.076172%)" offset="0.660156"/><stop stop-opacity="1" stop-color="rgb(13.812256%, 13.279724%, 53.390503%)" offset="0.664062"/><stop stop-opacity="1" stop-color="rgb(13.893127%, 13.357544%, 53.703308%)" offset="0.667969"/><stop stop-opacity="1" stop-color="rgb(13.973999%, 13.43689%, 54.017639%)" offset="0.671875"/><stop stop-opacity="1" stop-color="rgb(14.054871%, 13.514709%, 54.33197%)" offset="0.675781"/><stop stop-opacity="1" stop-color="rgb(14.137268%, 13.592529%, 54.646301%)" offset="0.679687"/><stop stop-opacity="1" stop-color="rgb(14.21814%, 13.670349%, 54.960632%)" offset="0.683594"/><stop stop-opacity="1" stop-color="rgb(14.299011%, 13.749695%, 55.274963%)" offset="0.6875"/><stop stop-opacity="1" stop-color="rgb(14.379883%, 13.827515%, 55.587769%)" offset="0.691406"/><stop stop-opacity="1" stop-color="rgb(14.46228%, 13.905334%, 55.9021%)" offset="0.695312"/><stop stop-opacity="1" stop-color="rgb(14.543152%, 13.983154%, 56.216431%)" offset="0.699219"/><stop stop-opacity="1" stop-color="rgb(14.624023%, 14.060974%, 56.530762%)" offset="0.703125"/><stop stop-opacity="1" stop-color="rgb(14.704895%, 14.138794%, 56.843567%)" offset="0.707031"/><stop stop-opacity="1" stop-color="rgb(14.787292%, 14.21814%, 57.157898%)" offset="0.710937"/><stop stop-opacity="1" stop-color="rgb(14.868164%, 14.295959%, 57.472229%)" offset="0.714844"/><stop stop-opacity="1" stop-color="rgb(14.949036%, 14.373779%, 57.78656%)" offset="0.71875"/><stop stop-opacity="1" stop-color="rgb(15.029907%, 14.451599%, 58.100891%)" offset="0.722656"/><stop stop-opacity="1" stop-color="rgb(15.112305%, 14.530945%, 58.415222%)" offset="0.726562"/><stop stop-opacity="1" stop-color="rgb(15.193176%, 14.608765%, 58.728027%)" offset="0.730469"/><stop stop-opacity="1" stop-color="rgb(15.274048%, 14.686584%, 59.042358%)" offset="0.734375"/><stop stop-opacity="1" stop-color="rgb(15.354919%, 14.764404%, 59.356689%)" offset="0.738281"/><stop stop-opacity="1" stop-color="rgb(15.437317%, 14.842224%, 59.671021%)" offset="0.742187"/><stop stop-opacity="1" stop-color="rgb(15.518188%, 14.920044%, 59.985352%)" offset="0.746094"/><stop stop-opacity="1" stop-color="rgb(15.59906%, 14.99939%, 60.299683%)" offset="0.75"/><stop stop-opacity="1" stop-color="rgb(15.679932%, 15.077209%, 60.612488%)" offset="0.753906"/><stop stop-opacity="1" stop-color="rgb(15.762329%, 15.155029%, 60.926819%)" offset="0.757812"/><stop stop-opacity="1" stop-color="rgb(15.843201%, 15.232849%, 61.24115%)" offset="0.761719"/><stop stop-opacity="1" stop-color="rgb(15.924072%, 15.312195%, 61.555481%)" offset="0.765625"/><stop stop-opacity="1" stop-color="rgb(16.004944%, 15.390015%, 61.869812%)" offset="0.769531"/><stop stop-opacity="1" stop-color="rgb(16.087341%, 15.467834%, 62.184143%)" offset="0.773438"/><stop stop-opacity="1" stop-color="rgb(16.168213%, 15.545654%, 62.496948%)" offset="0.777344"/><stop stop-opacity="1" stop-color="rgb(16.249084%, 15.623474%, 62.811279%)" offset="0.78125"/><stop stop-opacity="1" stop-color="rgb(16.329956%, 15.701294%, 63.12561%)" offset="0.785156"/><stop stop-opacity="1" stop-color="rgb(16.412354%, 15.78064%, 63.439941%)" offset="0.789062"/><stop stop-opacity="1" stop-color="rgb(16.493225%, 15.858459%, 63.754272%)" offset="0.792969"/><stop stop-opacity="1" stop-color="rgb(16.574097%, 15.936279%, 64.068604%)" offset="0.796875"/><stop stop-opacity="1" stop-color="rgb(16.654968%, 16.014099%, 64.381409%)" offset="0.800781"/><stop stop-opacity="1" stop-color="rgb(16.737366%, 16.093445%, 64.69574%)" offset="0.804688"/><stop stop-opacity="1" stop-color="rgb(16.818237%, 16.171265%, 65.010071%)" offset="0.808594"/><stop stop-opacity="1" stop-color="rgb(16.899109%, 16.249084%, 65.324402%)" offset="0.8125"/><stop stop-opacity="1" stop-color="rgb(16.97998%, 16.326904%, 65.638733%)" offset="0.816406"/><stop stop-opacity="1" stop-color="rgb(17.062378%, 16.404724%, 65.953064%)" offset="0.820312"/><stop stop-opacity="1" stop-color="rgb(17.14325%, 16.482544%, 66.265869%)" offset="0.824219"/><stop stop-opacity="1" stop-color="rgb(17.224121%, 16.56189%, 66.5802%)" offset="0.828125"/><stop stop-opacity="1" stop-color="rgb(17.304993%, 16.639709%, 66.894531%)" offset="0.832031"/><stop stop-opacity="1" stop-color="rgb(17.38739%, 16.717529%, 67.208862%)" offset="0.835938"/><stop stop-opacity="1" stop-color="rgb(17.468262%, 16.795349%, 67.521667%)" offset="0.839844"/><stop stop-opacity="1" stop-color="rgb(17.549133%, 16.874695%, 67.835999%)" offset="0.84375"/><stop stop-opacity="1" stop-color="rgb(17.630005%, 16.952515%, 68.15033%)" offset="0.847656"/><stop stop-opacity="1" stop-color="rgb(17.712402%, 17.030334%, 68.464661%)" offset="0.851562"/><stop stop-opacity="1" stop-color="rgb(17.793274%, 17.108154%, 68.778992%)" offset="0.855469"/><stop stop-opacity="1" stop-color="rgb(17.874146%, 17.185974%, 69.093323%)" offset="0.859375"/><stop stop-opacity="1" stop-color="rgb(17.955017%, 17.263794%, 69.406128%)" offset="0.863281"/><stop stop-opacity="1" stop-color="rgb(18.037415%, 17.34314%, 69.720459%)" offset="0.867188"/><stop stop-opacity="1" stop-color="rgb(18.118286%, 17.420959%, 70.03479%)" offset="0.871094"/><stop stop-opacity="1" stop-color="rgb(18.199158%, 17.498779%, 70.349121%)" offset="0.875"/><stop stop-opacity="1" stop-color="rgb(18.280029%, 17.576599%, 70.663452%)" offset="0.878906"/><stop stop-opacity="1" stop-color="rgb(18.362427%, 17.655945%, 70.977783%)" offset="0.882812"/><stop stop-opacity="1" stop-color="rgb(18.443298%, 17.733765%, 71.290588%)" offset="0.886719"/><stop stop-opacity="1" stop-color="rgb(18.52417%, 17.811584%, 71.604919%)" offset="0.890625"/><stop stop-opacity="1" stop-color="rgb(18.605042%, 17.889404%, 71.91925%)" offset="0.894531"/><stop stop-opacity="1" stop-color="rgb(18.687439%, 17.967224%, 72.233582%)" offset="0.898438"/><stop stop-opacity="1" stop-color="rgb(18.768311%, 18.045044%, 72.547913%)" offset="0.902344"/><stop stop-opacity="1" stop-color="rgb(18.849182%, 18.12439%, 72.862244%)" offset="0.90625"/><stop stop-opacity="1" stop-color="rgb(18.930054%, 18.202209%, 73.175049%)" offset="0.910156"/><stop stop-opacity="1" stop-color="rgb(19.012451%, 18.280029%, 73.48938%)" offset="0.914062"/><stop stop-opacity="1" stop-color="rgb(19.093323%, 18.357849%, 73.803711%)" offset="0.917969"/><stop stop-opacity="1" stop-color="rgb(19.174194%, 18.437195%, 74.118042%)" offset="0.921875"/><stop stop-opacity="1" stop-color="rgb(19.255066%, 18.515015%, 74.432373%)" offset="0.925781"/><stop stop-opacity="1" stop-color="rgb(19.337463%, 18.592834%, 74.746704%)" offset="0.929688"/><stop stop-opacity="1" stop-color="rgb(19.418335%, 18.670654%, 75.059509%)" offset="0.933594"/><stop stop-opacity="1" stop-color="rgb(19.499207%, 18.748474%, 75.37384%)" offset="0.9375"/><stop stop-opacity="1" stop-color="rgb(19.580078%, 18.826294%, 75.688171%)" offset="0.941406"/><stop stop-opacity="1" stop-color="rgb(19.662476%, 18.90564%, 76.002502%)" offset="0.945312"/><stop stop-opacity="1" stop-color="rgb(19.743347%, 18.983459%, 76.316833%)" offset="0.949219"/><stop stop-opacity="1" stop-color="rgb(19.824219%, 19.061279%, 76.631165%)" offset="0.953125"/><stop stop-opacity="1" stop-color="rgb(19.90509%, 19.139099%, 76.94397%)" offset="0.957031"/><stop stop-opacity="1" stop-color="rgb(19.987488%, 19.218445%, 77.258301%)" offset="0.960938"/><stop stop-opacity="1" stop-color="rgb(20.068359%, 19.296265%, 77.572632%)" offset="0.964844"/><stop stop-opacity="1" stop-color="rgb(20.149231%, 19.374084%, 77.886963%)" offset="0.96875"/><stop stop-opacity="1" stop-color="rgb(20.230103%, 19.451904%, 78.199768%)" offset="0.972656"/><stop stop-opacity="1" stop-color="rgb(20.310974%, 19.529724%, 78.514099%)" offset="0.976562"/><stop stop-opacity="1" stop-color="rgb(20.391846%, 19.607544%, 78.82843%)" offset="0.980469"/><stop stop-opacity="1" stop-color="rgb(20.474243%, 19.68689%, 79.142761%)" offset="0.984375"/><stop stop-opacity="1" stop-color="rgb(20.555115%, 19.764709%, 79.457092%)" offset="0.988281"/><stop stop-opacity="1" stop-color="rgb(20.635986%, 19.842529%, 79.771423%)" offset="0.992188"/><stop stop-opacity="1" stop-color="rgb(20.716858%, 19.920349%, 80.084229%)" offset="0.996094"/><stop stop-opacity="1" stop-color="rgb(20.799255%, 19.999695%, 80.39856%)" offset="1"/></linearGradient><clipPath id="3d97348738"><path d="M 78.421875 37 L 296.671875 37 L 296.671875 276.75 L 78.421875 276.75 Z M 78.421875 37 " clip-rule="nonzero"/></clipPath><clipPath id="ec9f66146c"><path d="M 195 146 L 360 146 L 360 375 L 195 375 Z M 195 146 " clip-rule="nonzero"/></clipPath><clipPath id="f5cdf4ae59"><path d="M 189.007812 365.136719 L 326.125 141.292969 L 368.335938 167.152344 L 231.21875 390.992188 Z M 189.007812 365.136719 " clip-rule="nonzero"/></clipPath><clipPath id="11a41ba7bb"><path d="M 189.007812 365.136719 L 326.125 141.292969 L 368.335938 167.152344 L 231.21875 390.992188 Z M 189.007812 365.136719 " clip-rule="nonzero"/></clipPath><clipPath id="346c5016d9"><path d="M 189.007812 365.136719 L 326.125 141.292969 L 368.335938 167.152344 L 231.21875 390.992188 Z M 189.007812 365.136719 " clip-rule="nonzero"/></clipPath></defs><rect x="-37.5" width="450" fill="#ffffff" y="-37.499999" height="449.999989" fill-opacity="1"/><rect x="-37.5" fill="url(#5b07b5d82b)" width="450" y="-37.499999" height="449.999989"/><g clip-path="url(#3d97348738)"><path fill="#ffffff" d="M 221.511719 156.777344 L 295.664062 45.550781 C 296.773438 43.882812 296.882812 41.738281 295.9375 39.96875 C 294.988281 38.203125 293.144531 37.09375 291.136719 37.09375 L 251.207031 37.09375 C 249.425781 37.09375 247.757812 37.964844 246.738281 39.425781 L 187.773438 124.136719 L 128.800781 39.425781 C 127.78125 37.964844 126.117188 37.09375 124.339844 37.09375 L 84.40625 37.09375 C 82.398438 37.09375 80.554688 38.195312 79.609375 39.964844 C 78.660156 41.734375 78.769531 43.882812 79.878906 45.546875 L 154.03125 156.777344 L 79.878906 268.007812 C 78.769531 269.675781 78.660156 271.820312 79.609375 273.589844 C 80.554688 275.355469 82.398438 276.464844 84.40625 276.464844 L 124.339844 276.464844 C 126.117188 276.464844 127.789062 275.59375 128.804688 274.132812 L 187.773438 189.421875 L 246.746094 274.132812 C 247.761719 275.59375 249.425781 276.464844 251.207031 276.464844 L 291.136719 276.464844 C 293.144531 276.464844 294.988281 275.363281 295.9375 273.59375 C 296.882812 271.824219 296.773438 269.675781 295.664062 268.011719 Z M 221.511719 156.777344 " fill-opacity="1" fill-rule="nonzero"/></g><g clip-path="url(#ec9f66146c)"><g clip-path="url(#f5cdf4ae59)"><g clip-path="url(#11a41ba7bb)"><g clip-path="url(#346c5016d9)"><path fill="#ffffff" d="M 324.511719 152.378906 C 323.28125 153.378906 322.070312 154.972656 320.867188 156.609375 C 320.847656 156.4375 320.738281 156.308594 320.558594 156.214844 C 319.933594 157.164062 320.019531 157.773438 319.292969 158.769531 C 319.285156 158.316406 318.953125 158.476562 318.71875 159.042969 C 318.644531 158.589844 319.375 157.746094 319.652344 157.949219 C 319.742188 157.738281 319.546875 157.671875 319.449219 157.828125 C 321.09375 155.445312 322.238281 152.652344 323.957031 150.800781 C 322.335938 151.511719 319.890625 155.546875 318.25 157.101562 C 318.089844 156.84375 318.71875 156.101562 318.90625 156.460938 C 318.929688 156.199219 319.152344 155.839844 318.972656 155.671875 C 320.304688 154.230469 321.570312 152.441406 322.488281 150.746094 C 324.351562 149.3125 326.179688 146.964844 328.09375 146.660156 C 328.945312 147.089844 329.242188 147.570312 329.996094 147.808594 C 330.546875 148.808594 331.035156 149.839844 331.007812 151.113281 C 332.234375 150.957031 333.085938 150.949219 333.957031 151.4375 C 334 151.734375 333.640625 152.777344 334.183594 152.195312 C 334.117188 152.585938 334.039062 152.984375 334.035156 153.347656 C 334.34375 153.429688 334.878906 152.714844 334.910156 153.253906 C 334.671875 153.828125 334.410156 153.75 334.167969 154.257812 C 334.824219 154.5 335.75 153.539062 336.6875 153.703125 C 337.84375 153.902344 338.535156 155.273438 339.710938 155.9375 C 338.8125 157.425781 340.601562 157.796875 339.179688 159.765625 C 340.773438 158.597656 342.824219 156.726562 344.0625 154.832031 C 344.679688 154.730469 346.058594 154.886719 345.867188 155.917969 C 346.15625 155.851562 346.445312 155.726562 346.734375 155.613281 C 346.789062 156.078125 345.800781 157.164062 346.59375 156.976562 C 345.917969 158.640625 344.359375 160.378906 344.546875 161.960938 C 344.816406 162.097656 345.050781 161.492188 345.308594 161.382812 C 345.589844 161.488281 345.71875 162.019531 346.019531 162.015625 C 346.746094 161.292969 346.65625 161.820312 347.152344 161.039062 C 347.3125 161.398438 347.347656 161.8125 347.011719 162.40625 C 347.550781 162.101562 348.070312 161.25 348.628906 161.308594 C 348.046875 163.328125 347.261719 163.878906 346.171875 165.839844 C 348.355469 163.414062 350.554688 161.390625 352.765625 159.660156 C 353.21875 159.894531 353.671875 160.132812 353.382812 160.445312 C 353.871094 160.351562 353.777344 159.984375 353.742188 159.625 C 354.703125 159.988281 355.28125 160.222656 356.285156 159.707031 C 356.8125 160.441406 355.886719 161.324219 355.511719 162.351562 C 356.074219 162.507812 356.632812 162.566406 357.15625 161.890625 C 357.773438 162.921875 356.070312 165.417969 355.875 166.507812 C 356.683594 166.523438 356.773438 165.273438 357.160156 164.378906 C 357.4375 164.835938 357.675781 164.238281 357.945312 164.4375 C 356.394531 167.191406 357.0625 167.933594 355.0625 170.578125 C 357.617188 172.242188 357.757812 175.0625 359.050781 177.332031 C 358.003906 178.496094 358.089844 179.347656 358.09375 180.277344 C 358.332031 180.515625 358.515625 179.402344 358.75 179.640625 C 358.378906 181.035156 357.304688 182.664062 356.40625 184.441406 C 355.566406 186.105469 354.753906 187.441406 353.726562 188.214844 C 349.941406 196.613281 345.417969 202.242188 340.851562 210.71875 C 340.449219 210.660156 341.015625 210.136719 340.726562 210.023438 C 339.171875 212.535156 337.214844 217.410156 335.144531 219.511719 C 334.941406 220.054688 334.691406 219.527344 334.46875 219.722656 C 333.355469 221.675781 332.945312 223.789062 331.539062 224.589844 C 329.71875 227.21875 328.6875 230.738281 326.867188 232.347656 C 322.128906 240.386719 318.566406 247.015625 313.730469 253.242188 C 311.21875 256.933594 309.582031 260.203125 307.027344 263.917969 C 306.878906 263.089844 307.648438 261.816406 308.167969 260.667969 C 307.144531 261.964844 305.714844 264.226562 304.679688 266.234375 C 301.207031 272.945312 296.953125 279.546875 292.671875 285.941406 C 292.253906 286.101562 292.582031 285.835938 292.460938 285.609375 C 291.351562 286.703125 290.96875 288.328125 290.371094 289.53125 C 290.007812 289.699219 290.109375 289.398438 289.871094 289.226562 C 288.949219 290.445312 289.609375 290.324219 289.261719 291.144531 C 288.925781 291.90625 289.128906 290.777344 288.777344 291.265625 C 288.535156 291.5625 288.746094 291.640625 288.894531 291.75 C 287.695312 293.402344 286.757812 294.734375 285.683594 296.859375 C 285.351562 297.515625 285.503906 296.589844 285.097656 296.921875 C 283.503906 299.445312 281.871094 303.414062 279.894531 306.015625 C 278.957031 307.25 278.59375 308.171875 277.695312 309.667969 C 276.929688 310.941406 275.644531 311.867188 274.613281 313.195312 C 273.769531 314.292969 273.109375 316.289062 271.773438 317.910156 C 271.648438 317.789062 272.011719 317.4375 271.847656 317.335938 C 268.871094 322.59375 265.027344 328.929688 262.554688 334.121094 C 258.570312 339.769531 255.367188 347.167969 252.054688 352.457031 C 251.984375 352.234375 252.070312 351.945312 252.3125 351.574219 C 248.722656 356.535156 243.757812 364.488281 239.914062 371.253906 C 239.585938 371.917969 240.027344 372.210938 239.398438 373.015625 C 239.722656 373.765625 239.019531 375.007812 238.734375 375.933594 C 238.683594 376.09375 238.671875 376.707031 238.574219 376.875 C 237.199219 379.355469 235.796875 377.503906 234.039062 378.285156 C 233.894531 379.179688 233.554688 379.988281 232.753906 380.414062 C 232.15625 379.980469 232.890625 378.90625 232.671875 378.289062 C 232.410156 378.398438 231.828125 378.945312 232.121094 379.203125 C 231.710938 379.421875 231.394531 379.222656 231.421875 378.777344 C 231.042969 379.285156 231.550781 379.363281 231.171875 379.871094 C 230.921875 379.808594 230.96875 379.605469 230.863281 379.476562 C 230.511719 379.925781 230.765625 380.0625 230.402344 380.238281 C 229.757812 379.898438 229.257812 379.488281 229.367188 378.785156 C 226.867188 381.4375 223.738281 382.914062 220.90625 384.675781 C 220.328125 384.230469 220.636719 383.359375 220.054688 382.917969 C 220.824219 380.839844 221.371094 379.535156 222.65625 377.234375 C 222.679688 376.753906 221.929688 377.171875 221.949219 376.597656 C 222.429688 376.019531 222.945312 375.113281 222.738281 374.378906 C 222.253906 374.847656 222.199219 375.191406 221.621094 375.777344 C 221.449219 375.535156 221.660156 375.109375 221.488281 374.867188 C 220.328125 375.480469 220.375 373.402344 219.382812 373.601562 C 219.308594 373.203125 220.0625 372.84375 220.308594 372.292969 C 219.511719 372.898438 220.628906 371.371094 220.546875 370.984375 C 220.300781 370.921875 219.996094 372.386719 219.796875 371.777344 C 219.027344 373.386719 219.078125 372.804688 218.425781 374.058594 C 217.019531 372.945312 217.859375 370.257812 218.640625 367.347656 C 218.128906 367.507812 217.199219 367.726562 216.972656 367.171875 C 216.65625 367.261719 216.625 368.125 216.4375 368.507812 C 216.140625 368.328125 216.335938 367.910156 216.113281 367.691406 C 215.652344 367.902344 216.09375 368.066406 215.753906 368.511719 C 215.441406 367.707031 216.132812 367 216.246094 366.113281 C 215.445312 366.570312 215.367188 367.511719 214.871094 368.394531 C 214.753906 368.234375 215.074219 367.863281 214.65625 367.847656 C 214.375 368.269531 214.816406 368.351562 214.304688 368.878906 C 213.945312 368.765625 214.359375 368.277344 213.886719 368.214844 C 213.527344 369.066406 213.039062 370.074219 212.519531 370.707031 C 212.152344 370.484375 212.460938 369.945312 212.378906 369.585938 C 211.910156 369.988281 211.960938 370.503906 211.5625 371.164062 C 211.085938 370.957031 210.625 370.679688 211.203125 369.496094 C 210.941406 369.40625 210.832031 369.238281 210.792969 369.042969 C 210.125 369.503906 210.125 369.890625 209.21875 371.203125 C 208.625 371.167969 208.820312 370.097656 208.390625 370.082031 C 207.40625 370.054688 207.027344 370.980469 206.320312 372.160156 C 206.214844 371.425781 205.816406 371.496094 205.777344 370.792969 C 205.015625 371.367188 204.988281 370.582031 204.382812 370.160156 C 204.535156 369.882812 204.699219 369.914062 204.847656 369.613281 C 203.992188 368.617188 206.042969 366.230469 205.164062 365.242188 C 204.535156 365.820312 203.84375 364.800781 203.207031 365.308594 C 202.421875 363.664062 199.609375 362.988281 201.242188 360.1875 C 200.714844 360.085938 200.210938 360.457031 199.722656 361.347656 C 199.351562 360.925781 199.007812 361.351562 198.671875 361.953125 C 198.3125 361.402344 198.332031 361.289062 197.691406 361.777344 C 197.230469 360.550781 196.238281 360.1875 195.414062 358.75 C 199.59375 352.707031 204.894531 344.019531 208.582031 338.703125 C 208.671875 338.554688 208.53125 338.511719 208.476562 338.429688 C 209.761719 337.566406 210.574219 335.515625 210.941406 334.113281 C 210.972656 334.238281 211.007812 334.367188 211.148438 334.445312 C 211.621094 333.824219 211.496094 333.484375 211.964844 332.863281 C 212.972656 331.691406 215.304688 326.484375 217.152344 323.347656 C 219.179688 319.90625 220.886719 316.074219 221.472656 314.136719 C 222.65625 314.117188 223.386719 312.183594 224.445312 310.332031 C 224.6875 309.847656 224.964844 310.292969 225.210938 309.964844 C 225.335938 308.765625 227.671875 306.488281 227.753906 305.070312 C 227.546875 304.820312 227.355469 304.914062 227.175781 305.34375 C 227.480469 304.054688 228.691406 302.945312 229.171875 301.574219 C 229.011719 301.613281 228.859375 301.859375 228.691406 301.695312 C 230.070312 299.695312 231.742188 297.695312 233.082031 296.671875 C 233.328125 295.8125 233.914062 295.546875 234.378906 294.96875 C 235.71875 293.3125 236.925781 290.316406 238.210938 288.15625 C 242.171875 281.503906 246.691406 275.355469 250.046875 268.964844 C 250.207031 268.925781 250.359375 268.675781 250.527344 268.84375 C 253.386719 264 255.367188 259.960938 258.289062 255.28125 C 258.054688 255.074219 257.839844 255.441406 257.621094 255.707031 C 258.25 254.4375 259.316406 253.53125 260.136719 252.664062 C 260.078125 251.1875 261.371094 250.859375 262.253906 249.378906 C 262.527344 249.429688 262.222656 249.753906 262.371094 249.867188 C 265.730469 245.152344 266.875 239.796875 270.769531 235.238281 C 270.71875 234.941406 270.800781 234.574219 271.023438 234.144531 C 271.574219 234.679688 270.53125 235.96875 270.347656 236.847656 C 271.785156 234.539062 273.171875 231.539062 275.410156 229.125 C 275.0625 227.59375 277.308594 225.199219 278.382812 222.832031 C 278.570312 222.886719 278.46875 223.078125 278.589844 223.164062 C 279.019531 222.445312 279.464844 222.117188 279.890625 221.460938 C 279.558594 221.242188 279.253906 221.84375 278.949219 222.34375 C 279.195312 220.832031 281.082031 219.660156 280.453125 218.484375 C 281.074219 217.734375 281.410156 217.183594 281.351562 216.539062 C 281.539062 216.59375 281.4375 216.785156 281.5625 216.871094 C 284.683594 213.019531 287.535156 208.210938 290.867188 202.789062 C 290.4375 202.625 290.058594 203.730469 289.640625 203.917969 C 292.292969 198.46875 297.320312 193.574219 299.441406 187.644531 C 298.671875 188.207031 297.691406 189.941406 297.210938 190.449219 C 296.960938 190.726562 296.734375 191.519531 296.46875 191.449219 C 297.566406 189.746094 297.632812 188.96875 298.558594 187.527344 C 298.589844 187.222656 298.421875 187.011719 298.714844 186.585938 C 298.726562 187.042969 299.046875 186.683594 299.316406 186.945312 C 299.8125 186.351562 299.714844 186.035156 299.851562 185.609375 C 300.796875 185.046875 301.09375 184.171875 301.40625 183.023438 C 305.59375 178.363281 308.851562 171.128906 312.816406 165.441406 C 312.4375 167.167969 310.640625 168.984375 310.488281 170.671875 C 310.90625 170.566406 311.269531 169.085938 311.722656 169.757812 C 312.175781 169.144531 311.765625 168.941406 312.15625 168.359375 C 312.402344 168.242188 312.640625 168.386719 312.65625 168.660156 C 313.167969 167.28125 314.609375 165.03125 316.082031 163.886719 C 315.804688 164.339844 315.53125 164.796875 315.253906 165.253906 C 317.421875 162.253906 320.976562 157.75 323.109375 154.027344 C 323.820312 154.011719 323.519531 153.394531 324.511719 152.378906 Z M 256.144531 260.203125 C 256.550781 259.421875 257.152344 258.699219 257.09375 259.53125 C 257.503906 258.9375 257.339844 258.621094 257.523438 258.136719 C 257.132812 258.777344 257.078125 258.359375 257.03125 258.046875 C 257.039062 258.855469 255.539062 259.710938 256.144531 260.203125 Z M 300.5625 186.238281 C 300.421875 186.417969 300.21875 186.457031 300.476562 186.601562 C 300.933594 185.816406 301.292969 185.023438 301.667969 184.625 C 301.214844 184.414062 300.511719 185.722656 300.5625 186.238281 Z M 277.480469 229.539062 C 277.757812 229.90625 278.207031 228.816406 277.941406 228.777344 C 277.703125 229.148438 277.46875 229.136719 277.480469 229.539062 Z M 278.324219 228.59375 C 278.566406 228.042969 279.304688 227.261719 279.230469 226.863281 C 278.6875 227.640625 278.207031 227.808594 278.324219 228.59375 Z M 269.285156 254.03125 C 269.851562 253.78125 270 252.695312 270.410156 252.839844 C 270.691406 252.394531 270.582031 251.890625 270.953125 251.714844 C 270.820312 251.636719 270.6875 251.554688 270.550781 251.476562 C 270.199219 252.292969 269.492188 253.277344 269.285156 254.03125 Z M 317.566406 186.121094 C 317.742188 185.605469 318.160156 184.972656 317.898438 184.664062 C 317.546875 185.265625 317.015625 185.953125 317.566406 186.121094 Z M 320.28125 183.199219 C 321.371094 180.984375 319.441406 183.929688 319.550781 184.414062 C 319.835938 183.898438 320.121094 183.53125 320.28125 183.199219 Z M 242.710938 324.445312 C 242.863281 324.375 243.375 323.578125 243.058594 323.414062 C 242.820312 323.816406 242.464844 324.273438 242.710938 324.445312 Z M 275.820312 282.628906 C 275.566406 282.210938 274.878906 283.292969 274.980469 283.574219 C 275.246094 282.921875 275.558594 283.398438 275.820312 282.628906 Z M 277.285156 280.195312 C 278.28125 278.957031 278.792969 277.726562 279.859375 276.152344 C 279.210938 276.894531 277.414062 279.125 277.285156 280.195312 Z M 282.152344 272.351562 C 281.996094 272.582031 281.847656 272.886719 281.675781 272.683594 C 281.324219 273.730469 280.246094 274.984375 279.84375 275.726562 C 281.191406 274.265625 281.75 273.519531 282.152344 272.351562 Z M 272.933594 288.558594 C 272.464844 289.6875 271.15625 290.882812 271.292969 291.507812 C 272.644531 289.898438 275.15625 286.039062 275.960938 283.753906 C 274.878906 285.289062 274.042969 286.125 273.289062 287.738281 C 274.371094 286.785156 272.519531 288.710938 272.550781 288.742188 C 272.671875 288.585938 272.804688 288.574219 272.933594 288.558594 Z M 283.191406 271.527344 C 283.40625 271.171875 283.617188 270.820312 283.832031 270.464844 C 283.46875 270.15625 283.046875 271.394531 283.191406 271.527344 Z M 276.238281 283.296875 C 276.1875 283.394531 276.148438 283.484375 276.246094 283.507812 C 276.703125 282.875 277.832031 280.730469 276.789062 282.382812 C 276.378906 282.566406 276.582031 282.929688 276.230469 283.085938 C 276.164062 283.054688 276.097656 283.035156 276.035156 283.175781 C 276.105469 283.214844 276.171875 283.257812 276.238281 283.296875 Z M 271.617188 292.324219 C 271.726562 292.601562 271.507812 293.03125 271.5625 293.328125 C 273.734375 290.128906 277.042969 284.421875 279.253906 280.554688 C 276.660156 283.585938 274.394531 288.558594 271.617188 292.324219 Z M 342.199219 186.039062 C 343.78125 184.871094 345.398438 182.757812 346.480469 180.746094 C 345.175781 182.675781 342.863281 184.257812 342.199219 186.039062 Z M 339.167969 193.335938 C 339.765625 193.03125 340.492188 191.707031 340.542969 191.054688 C 340.746094 191.234375 340.941406 191.246094 341.128906 190.992188 C 341.082031 190.605469 340.863281 190.988281 340.816406 190.597656 C 339.914062 191.195312 339.570312 192.207031 339.167969 193.335938 Z M 337.621094 196.132812 C 337.953125 195.503906 338.308594 195.394531 338.636719 194.671875 C 338.097656 194.410156 337.417969 195.996094 337.621094 196.132812 Z M 346.492188 183.445312 C 346.878906 183.003906 347.136719 182.542969 347.691406 181.683594 C 347.222656 181.417969 346.71875 182.886719 346.492188 183.445312 Z M 268.484375 321.109375 C 268.425781 321.589844 267.402344 322.46875 267.390625 323.148438 C 267.898438 322.996094 268.707031 321.550781 268.484375 321.109375 Z M 309.332031 255.566406 C 309.070312 256.167969 308.578125 256.261719 308.601562 256.78125 C 309.398438 256.496094 310.027344 255.148438 310.640625 254.074219 C 311.628906 252.34375 312.359375 250.582031 313.5625 248.996094 C 312.03125 250.273438 310.011719 254.253906 309.332031 255.566406 Z M 314.925781 246.503906 C 315.457031 245.910156 316.300781 244.28125 316.652344 243.1875 C 316.089844 244.371094 314.425781 245.980469 314.925781 246.503906 Z M 320.316406 237.105469 C 320.738281 237.410156 319.375 238.5625 319.800781 238.867188 C 320.421875 238.207031 320.617188 237.582031 320.894531 236.828125 C 321.199219 236.914062 321.300781 236.914062 321.765625 236.734375 C 322.820312 233.046875 326.085938 230.851562 327.054688 227.277344 C 324.578125 230.347656 322.929688 234.128906 320.316406 237.105469 Z M 303.859375 265.328125 C 303.390625 266.097656 302.367188 266.816406 302.78125 267.578125 C 304.609375 264.949219 306.191406 262.199219 307.328125 259.125 C 306.113281 261.085938 305.023438 263.421875 303.859375 265.328125 Z M 303.859375 265.328125 " fill-opacity="1" fill-rule="evenodd"/></g></g></g></g></svg>