<svg xmlns="http://www.w3.org/2000/svg" xmlns:xlink="http://www.w3.org/1999/xlink" width="500" zoomAndPan="magnify" viewBox="0 0 375 374.999991" height="500" preserveAspectRatio="xMidYMid meet" version="1.0"><defs><linearGradient x1="0" gradientTransform="matrix(0.75, 0, 0, 0.75, 0.0000045, 0)" y1="250" x2="499.999979" gradientUnits="userSpaceOnUse" y2="250" id="9ddf02ea56"><stop stop-opacity="1" stop-color="rgb(0%, 0%, 0%)" offset="0"/><stop stop-opacity="1" stop-color="rgb(0.305176%, 0.221252%, 0.0335693%)" offset="0.00390625"/><stop stop-opacity="1" stop-color="rgb(0.611877%, 0.444031%, 0.0671387%)" offset="0.0078125"/><stop stop-opacity="1" stop-color="rgb(0.917053%, 0.665283%, 0.100708%)" offset="0.0117187"/><stop stop-opacity="1" stop-color="rgb(1.223755%, 0.888062%, 0.134277%)" offset="0.015625"/><stop stop-opacity="1" stop-color="rgb(1.530457%, 1.109314%, 0.167847%)" offset="0.0195312"/><stop stop-opacity="1" stop-color="rgb(1.837158%, 1.332092%, 0.201416%)" offset="0.0234375"/><stop stop-opacity="1" stop-color="rgb(2.142334%, 1.554871%, 0.234985%)" offset="0.0273438"/><stop stop-opacity="1" stop-color="rgb(2.449036%, 1.777649%, 0.268555%)" offset="0.03125"/><stop stop-opacity="1" stop-color="rgb(2.755737%, 1.998901%, 0.302124%)" offset="0.0351562"/><stop stop-opacity="1" stop-color="rgb(3.062439%, 2.22168%, 0.335693%)" offset="0.0390625"/><stop stop-opacity="1" stop-color="rgb(3.367615%, 2.442932%, 0.369263%)" offset="0.0429687"/><stop stop-opacity="1" stop-color="rgb(3.674316%, 2.66571%, 0.402832%)" offset="0.046875"/><stop stop-opacity="1" stop-color="rgb(3.979492%, 2.888489%, 0.436401%)" offset="0.0507812"/><stop stop-opacity="1" stop-color="rgb(4.286194%, 3.111267%, 0.469971%)" offset="0.0546875"/><stop stop-opacity="1" stop-color="rgb(4.592896%, 3.33252%, 0.50354%)" offset="0.0585938"/><stop stop-opacity="1" stop-color="rgb(4.899597%, 3.555298%, 0.537109%)" offset="0.0625"/><stop stop-opacity="1" stop-color="rgb(5.204773%, 3.77655%, 0.570679%)" offset="0.0664062"/><stop stop-opacity="1" stop-color="rgb(5.511475%, 3.999329%, 0.604248%)" offset="0.0703125"/><stop stop-opacity="1" stop-color="rgb(5.818176%, 4.222107%, 0.637817%)" offset="0.0742187"/><stop stop-opacity="1" stop-color="rgb(6.124878%, 4.444885%, 0.671387%)" offset="0.078125"/><stop stop-opacity="1" stop-color="rgb(6.430054%, 4.666138%, 0.704956%)" offset="0.0820312"/><stop stop-opacity="1" stop-color="rgb(6.736755%, 4.888916%, 0.738525%)" offset="0.0859375"/><stop stop-opacity="1" stop-color="rgb(7.041931%, 5.110168%, 0.772095%)" offset="0.0898437"/><stop stop-opacity="1" stop-color="rgb(7.348633%, 5.332947%, 0.805664%)" offset="0.09375"/><stop stop-opacity="1" stop-color="rgb(7.655334%, 5.555725%, 0.839233%)" offset="0.0976562"/><stop stop-opacity="1" stop-color="rgb(7.962036%, 5.778503%, 0.872803%)" offset="0.101562"/><stop stop-opacity="1" stop-color="rgb(8.267212%, 5.999756%, 0.906372%)" offset="0.105469"/><stop stop-opacity="1" stop-color="rgb(8.573914%, 6.222534%, 0.939941%)" offset="0.109375"/><stop stop-opacity="1" stop-color="rgb(8.880615%, 6.443787%, 0.973511%)" offset="0.113281"/><stop stop-opacity="1" stop-color="rgb(9.187317%, 6.666565%, 1.00708%)" offset="0.117188"/><stop stop-opacity="1" stop-color="rgb(9.492493%, 6.889343%, 1.040649%)" offset="0.121094"/><stop stop-opacity="1" stop-color="rgb(9.799194%, 7.112122%, 1.074219%)" offset="0.125"/><stop stop-opacity="1" stop-color="rgb(10.10437%, 7.333374%, 1.107788%)" offset="0.128906"/><stop stop-opacity="1" stop-color="rgb(10.411072%, 7.556152%, 1.141357%)" offset="0.132812"/><stop stop-opacity="1" stop-color="rgb(10.717773%, 7.777405%, 1.174927%)" offset="0.136719"/><stop stop-opacity="1" stop-color="rgb(11.024475%, 8.000183%, 1.208496%)" offset="0.140625"/><stop stop-opacity="1" stop-color="rgb(11.329651%, 8.222961%, 1.242065%)" offset="0.144531"/><stop stop-opacity="1" stop-color="rgb(11.636353%, 8.44574%, 1.275635%)" offset="0.148437"/><stop stop-opacity="1" stop-color="rgb(11.943054%, 8.666992%, 1.309204%)" offset="0.152344"/><stop stop-opacity="1" stop-color="rgb(12.249756%, 8.889771%, 1.342773%)" offset="0.15625"/><stop stop-opacity="1" stop-color="rgb(12.554932%, 9.111023%, 1.376343%)" offset="0.160156"/><stop stop-opacity="1" stop-color="rgb(12.861633%, 9.333801%, 1.409912%)" offset="0.164062"/><stop stop-opacity="1" stop-color="rgb(13.166809%, 9.55658%, 1.443481%)" offset="0.167969"/><stop stop-opacity="1" stop-color="rgb(13.473511%, 9.779358%, 1.477051%)" offset="0.171875"/><stop stop-opacity="1" stop-color="rgb(13.780212%, 10.00061%, 1.51062%)" offset="0.175781"/><stop stop-opacity="1" stop-color="rgb(14.086914%, 10.223389%, 1.544189%)" offset="0.179687"/><stop stop-opacity="1" stop-color="rgb(14.39209%, 10.444641%, 1.577759%)" offset="0.183594"/><stop stop-opacity="1" stop-color="rgb(14.698792%, 10.667419%, 1.611328%)" offset="0.1875"/><stop stop-opacity="1" stop-color="rgb(15.005493%, 10.890198%, 1.644897%)" offset="0.191406"/><stop stop-opacity="1" stop-color="rgb(15.312195%, 11.112976%, 1.678467%)" offset="0.195312"/><stop stop-opacity="1" stop-color="rgb(15.617371%, 11.334229%, 1.712036%)" offset="0.199219"/><stop stop-opacity="1" stop-color="rgb(15.924072%, 11.557007%, 1.745605%)" offset="0.203125"/><stop stop-opacity="1" stop-color="rgb(16.230774%, 11.778259%, 1.779175%)" offset="0.207031"/><stop stop-opacity="1" stop-color="rgb(16.537476%, 12.001038%, 1.812744%)" offset="0.210938"/><stop stop-opacity="1" stop-color="rgb(16.842651%, 12.223816%, 1.846313%)" offset="0.214844"/><stop stop-opacity="1" stop-color="rgb(17.149353%, 12.446594%, 1.879883%)" offset="0.21875"/><stop stop-opacity="1" stop-color="rgb(17.454529%, 12.667847%, 1.913452%)" offset="0.222656"/><stop stop-opacity="1" stop-color="rgb(17.76123%, 12.890625%, 1.947021%)" offset="0.226562"/><stop stop-opacity="1" stop-color="rgb(18.067932%, 13.111877%, 1.980591%)" offset="0.230469"/><stop stop-opacity="1" stop-color="rgb(18.374634%, 13.334656%, 2.01416%)" offset="0.234375"/><stop stop-opacity="1" stop-color="rgb(18.67981%, 13.557434%, 2.047729%)" offset="0.238281"/><stop stop-opacity="1" stop-color="rgb(18.986511%, 13.780212%, 2.081299%)" offset="0.242188"/><stop stop-opacity="1" stop-color="rgb(19.293213%, 14.001465%, 2.114868%)" offset="0.246094"/><stop stop-opacity="1" stop-color="rgb(19.599915%, 14.224243%, 2.149963%)" offset="0.25"/><stop stop-opacity="1" stop-color="rgb(19.90509%, 14.445496%, 2.183533%)" offset="0.253906"/><stop stop-opacity="1" stop-color="rgb(20.211792%, 14.668274%, 2.217102%)" offset="0.257812"/><stop stop-opacity="1" stop-color="rgb(20.516968%, 14.891052%, 2.250671%)" offset="0.261719"/><stop stop-opacity="1" stop-color="rgb(20.823669%, 15.113831%, 2.284241%)" offset="0.265625"/><stop stop-opacity="1" stop-color="rgb(21.130371%, 15.335083%, 2.31781%)" offset="0.269531"/><stop stop-opacity="1" stop-color="rgb(21.437073%, 15.557861%, 2.351379%)" offset="0.273437"/><stop stop-opacity="1" stop-color="rgb(21.742249%, 15.779114%, 2.384949%)" offset="0.277344"/><stop stop-opacity="1" stop-color="rgb(22.04895%, 16.001892%, 2.418518%)" offset="0.28125"/><stop stop-opacity="1" stop-color="rgb(22.355652%, 16.22467%, 2.452087%)" offset="0.285156"/><stop stop-opacity="1" stop-color="rgb(22.662354%, 16.447449%, 2.485657%)" offset="0.289062"/><stop stop-opacity="1" stop-color="rgb(22.967529%, 16.668701%, 2.519226%)" offset="0.292969"/><stop stop-opacity="1" stop-color="rgb(23.274231%, 16.891479%, 2.552795%)" offset="0.296875"/><stop stop-opacity="1" stop-color="rgb(23.579407%, 17.112732%, 2.586365%)" offset="0.300781"/><stop stop-opacity="1" stop-color="rgb(23.886108%, 17.33551%, 2.619934%)" offset="0.304687"/><stop stop-opacity="1" stop-color="rgb(24.19281%, 17.558289%, 2.653503%)" offset="0.308594"/><stop stop-opacity="1" stop-color="rgb(24.499512%, 17.781067%, 2.687073%)" offset="0.3125"/><stop stop-opacity="1" stop-color="rgb(24.804688%, 18.002319%, 2.720642%)" offset="0.316406"/><stop stop-opacity="1" stop-color="rgb(25.111389%, 18.225098%, 2.754211%)" offset="0.320312"/><stop stop-opacity="1" stop-color="rgb(25.418091%, 18.44635%, 2.787781%)" offset="0.324219"/><stop stop-opacity="1" stop-color="rgb(25.724792%, 18.669128%, 2.82135%)" offset="0.328125"/><stop stop-opacity="1" stop-color="rgb(26.029968%, 18.891907%, 2.854919%)" offset="0.332031"/><stop stop-opacity="1" stop-color="rgb(26.33667%, 19.114685%, 2.888489%)" offset="0.335937"/><stop stop-opacity="1" stop-color="rgb(26.641846%, 19.335938%, 2.922058%)" offset="0.339844"/><stop stop-opacity="1" stop-color="rgb(26.948547%, 19.558716%, 2.955627%)" offset="0.34375"/><stop stop-opacity="1" stop-color="rgb(27.255249%, 19.779968%, 2.989197%)" offset="0.347656"/><stop stop-opacity="1" stop-color="rgb(27.561951%, 20.002747%, 3.022766%)" offset="0.351562"/><stop stop-opacity="1" stop-color="rgb(27.867126%, 20.225525%, 3.056335%)" offset="0.355469"/><stop stop-opacity="1" stop-color="rgb(28.173828%, 20.448303%, 3.089905%)" offset="0.359375"/><stop stop-opacity="1" stop-color="rgb(28.48053%, 20.669556%, 3.123474%)" offset="0.363281"/><stop stop-opacity="1" stop-color="rgb(28.787231%, 20.892334%, 3.157043%)" offset="0.367187"/><stop stop-opacity="1" stop-color="rgb(29.092407%, 21.113586%, 3.190613%)" offset="0.371094"/><stop stop-opacity="1" stop-color="rgb(29.399109%, 21.336365%, 3.224182%)" offset="0.375"/><stop stop-opacity="1" stop-color="rgb(29.704285%, 21.559143%, 3.257751%)" offset="0.378906"/><stop stop-opacity="1" stop-color="rgb(30.010986%, 21.781921%, 3.291321%)" offset="0.382812"/><stop stop-opacity="1" stop-color="rgb(30.317688%, 22.003174%, 3.32489%)" offset="0.386719"/><stop stop-opacity="1" stop-color="rgb(30.62439%, 22.225952%, 3.358459%)" offset="0.390625"/><stop stop-opacity="1" stop-color="rgb(30.929565%, 22.447205%, 3.392029%)" offset="0.394531"/><stop stop-opacity="1" stop-color="rgb(31.236267%, 22.669983%, 3.425598%)" offset="0.398438"/><stop stop-opacity="1" stop-color="rgb(31.542969%, 22.892761%, 3.459167%)" offset="0.402344"/><stop stop-opacity="1" stop-color="rgb(31.84967%, 23.11554%, 3.492737%)" offset="0.40625"/><stop stop-opacity="1" stop-color="rgb(32.154846%, 23.336792%, 3.526306%)" offset="0.410156"/><stop stop-opacity="1" stop-color="rgb(32.461548%, 23.55957%, 3.559875%)" offset="0.414062"/><stop stop-opacity="1" stop-color="rgb(32.76825%, 23.780823%, 3.593445%)" offset="0.417969"/><stop stop-opacity="1" stop-color="rgb(33.074951%, 24.003601%, 3.627014%)" offset="0.421875"/><stop stop-opacity="1" stop-color="rgb(33.380127%, 24.226379%, 3.660583%)" offset="0.425781"/><stop stop-opacity="1" stop-color="rgb(33.686829%, 24.449158%, 3.694153%)" offset="0.429688"/><stop stop-opacity="1" stop-color="rgb(33.992004%, 24.67041%, 3.727722%)" offset="0.433594"/><stop stop-opacity="1" stop-color="rgb(34.298706%, 24.893188%, 3.761292%)" offset="0.4375"/><stop stop-opacity="1" stop-color="rgb(34.605408%, 25.114441%, 3.794861%)" offset="0.441406"/><stop stop-opacity="1" stop-color="rgb(34.912109%, 25.337219%, 3.82843%)" offset="0.445312"/><stop stop-opacity="1" stop-color="rgb(35.217285%, 25.559998%, 3.862%)" offset="0.449219"/><stop stop-opacity="1" stop-color="rgb(35.523987%, 25.782776%, 3.895569%)" offset="0.453125"/><stop stop-opacity="1" stop-color="rgb(35.830688%, 26.004028%, 3.929138%)" offset="0.457031"/><stop stop-opacity="1" stop-color="rgb(36.13739%, 26.226807%, 3.962708%)" offset="0.460938"/><stop stop-opacity="1" stop-color="rgb(36.442566%, 26.448059%, 3.996277%)" offset="0.464844"/><stop stop-opacity="1" stop-color="rgb(36.749268%, 26.670837%, 4.029846%)" offset="0.46875"/><stop stop-opacity="1" stop-color="rgb(37.054443%, 26.893616%, 4.063416%)" offset="0.472656"/><stop stop-opacity="1" stop-color="rgb(37.361145%, 27.116394%, 4.096985%)" offset="0.476562"/><stop stop-opacity="1" stop-color="rgb(37.667847%, 27.337646%, 4.130554%)" offset="0.480469"/><stop stop-opacity="1" stop-color="rgb(37.974548%, 27.560425%, 4.164124%)" offset="0.484375"/><stop stop-opacity="1" stop-color="rgb(38.279724%, 27.781677%, 4.197693%)" offset="0.488281"/><stop stop-opacity="1" stop-color="rgb(38.586426%, 28.004456%, 4.232788%)" offset="0.492188"/><stop stop-opacity="1" stop-color="rgb(38.893127%, 28.225708%, 4.266357%)" offset="0.496094"/><stop stop-opacity="1" stop-color="rgb(39.199829%, 28.448486%, 4.299927%)" offset="0.5"/><stop stop-opacity="1" stop-color="rgb(39.505005%, 28.671265%, 4.333496%)" offset="0.503906"/><stop stop-opacity="1" stop-color="rgb(39.811707%, 28.894043%, 4.367065%)" offset="0.507812"/><stop stop-opacity="1" stop-color="rgb(40.116882%, 29.115295%, 4.400635%)" offset="0.511719"/><stop stop-opacity="1" stop-color="rgb(40.423584%, 29.338074%, 4.434204%)" offset="0.515625"/><stop stop-opacity="1" stop-color="rgb(40.730286%, 29.559326%, 4.467773%)" offset="0.519531"/><stop stop-opacity="1" stop-color="rgb(41.036987%, 29.782104%, 4.501343%)" offset="0.523437"/><stop stop-opacity="1" stop-color="rgb(41.342163%, 30.004883%, 4.534912%)" offset="0.527344"/><stop stop-opacity="1" stop-color="rgb(41.648865%, 30.227661%, 4.568481%)" offset="0.53125"/><stop stop-opacity="1" stop-color="rgb(41.955566%, 30.448914%, 4.602051%)" offset="0.535156"/><stop stop-opacity="1" stop-color="rgb(42.262268%, 30.671692%, 4.63562%)" offset="0.539062"/><stop stop-opacity="1" stop-color="rgb(42.567444%, 30.892944%, 4.669189%)" offset="0.542969"/><stop stop-opacity="1" stop-color="rgb(42.874146%, 31.115723%, 4.702759%)" offset="0.546875"/><stop stop-opacity="1" stop-color="rgb(43.179321%, 31.338501%, 4.736328%)" offset="0.550781"/><stop stop-opacity="1" stop-color="rgb(43.486023%, 31.561279%, 4.769897%)" offset="0.554687"/><stop stop-opacity="1" stop-color="rgb(43.792725%, 31.782532%, 4.803467%)" offset="0.558594"/><stop stop-opacity="1" stop-color="rgb(44.099426%, 32.00531%, 4.837036%)" offset="0.5625"/><stop stop-opacity="1" stop-color="rgb(44.404602%, 32.226562%, 4.870605%)" offset="0.566406"/><stop stop-opacity="1" stop-color="rgb(44.711304%, 32.449341%, 4.904175%)" offset="0.570312"/><stop stop-opacity="1" stop-color="rgb(45.018005%, 32.672119%, 4.937744%)" offset="0.574219"/><stop stop-opacity="1" stop-color="rgb(45.324707%, 32.894897%, 4.971313%)" offset="0.578125"/><stop stop-opacity="1" stop-color="rgb(45.629883%, 33.11615%, 5.004883%)" offset="0.582031"/><stop stop-opacity="1" stop-color="rgb(45.936584%, 33.338928%, 5.038452%)" offset="0.585937"/><stop stop-opacity="1" stop-color="rgb(46.243286%, 33.560181%, 5.072021%)" offset="0.589844"/><stop stop-opacity="1" stop-color="rgb(46.549988%, 33.782959%, 5.105591%)" offset="0.59375"/><stop stop-opacity="1" stop-color="rgb(46.855164%, 34.005737%, 5.13916%)" offset="0.597656"/><stop stop-opacity="1" stop-color="rgb(47.161865%, 34.228516%, 5.172729%)" offset="0.601562"/><stop stop-opacity="1" stop-color="rgb(47.467041%, 34.449768%, 5.206299%)" offset="0.605469"/><stop stop-opacity="1" stop-color="rgb(47.773743%, 34.672546%, 5.239868%)" offset="0.609375"/><stop stop-opacity="1" stop-color="rgb(48.080444%, 34.893799%, 5.273438%)" offset="0.613281"/><stop stop-opacity="1" stop-color="rgb(48.387146%, 35.116577%, 5.307007%)" offset="0.617187"/><stop stop-opacity="1" stop-color="rgb(48.692322%, 35.339355%, 5.340576%)" offset="0.621094"/><stop stop-opacity="1" stop-color="rgb(48.999023%, 35.562134%, 5.374146%)" offset="0.625"/><stop stop-opacity="1" stop-color="rgb(49.305725%, 35.783386%, 5.407715%)" offset="0.628906"/><stop stop-opacity="1" stop-color="rgb(49.612427%, 36.006165%, 5.441284%)" offset="0.632812"/><stop stop-opacity="1" stop-color="rgb(49.917603%, 36.227417%, 5.474854%)" offset="0.636719"/><stop stop-opacity="1" stop-color="rgb(50.224304%, 36.450195%, 5.508423%)" offset="0.640625"/><stop stop-opacity="1" stop-color="rgb(50.52948%, 36.672974%, 5.541992%)" offset="0.644531"/><stop stop-opacity="1" stop-color="rgb(50.836182%, 36.895752%, 5.575562%)" offset="0.648437"/><stop stop-opacity="1" stop-color="rgb(51.142883%, 37.117004%, 5.609131%)" offset="0.652344"/><stop stop-opacity="1" stop-color="rgb(51.449585%, 37.339783%, 5.6427%)" offset="0.65625"/><stop stop-opacity="1" stop-color="rgb(51.754761%, 37.561035%, 5.67627%)" offset="0.660156"/><stop stop-opacity="1" stop-color="rgb(52.061462%, 37.783813%, 5.709839%)" offset="0.664062"/><stop stop-opacity="1" stop-color="rgb(52.368164%, 38.006592%, 5.743408%)" offset="0.667969"/><stop stop-opacity="1" stop-color="rgb(52.674866%, 38.22937%, 5.776978%)" offset="0.671875"/><stop stop-opacity="1" stop-color="rgb(52.980042%, 38.450623%, 5.810547%)" offset="0.675781"/><stop stop-opacity="1" stop-color="rgb(53.286743%, 38.673401%, 5.844116%)" offset="0.679687"/><stop stop-opacity="1" stop-color="rgb(53.591919%, 38.894653%, 5.877686%)" offset="0.683594"/><stop stop-opacity="1" stop-color="rgb(53.898621%, 39.117432%, 5.911255%)" offset="0.6875"/><stop stop-opacity="1" stop-color="rgb(54.205322%, 39.34021%, 5.944824%)" offset="0.691406"/><stop stop-opacity="1" stop-color="rgb(54.512024%, 39.562988%, 5.978394%)" offset="0.695312"/><stop stop-opacity="1" stop-color="rgb(54.8172%, 39.784241%, 6.011963%)" offset="0.699219"/><stop stop-opacity="1" stop-color="rgb(55.123901%, 40.007019%, 6.045532%)" offset="0.703125"/><stop stop-opacity="1" stop-color="rgb(55.430603%, 40.228271%, 6.079102%)" offset="0.707031"/><stop stop-opacity="1" stop-color="rgb(55.737305%, 40.45105%, 6.112671%)" offset="0.710937"/><stop stop-opacity="1" stop-color="rgb(56.04248%, 40.673828%, 6.14624%)" offset="0.714844"/><stop stop-opacity="1" stop-color="rgb(56.349182%, 40.896606%, 6.17981%)" offset="0.71875"/><stop stop-opacity="1" stop-color="rgb(56.654358%, 41.117859%, 6.213379%)" offset="0.722656"/><stop stop-opacity="1" stop-color="rgb(56.96106%, 41.340637%, 6.246948%)" offset="0.726562"/><stop stop-opacity="1" stop-color="rgb(57.267761%, 41.56189%, 6.280518%)" offset="0.730469"/><stop stop-opacity="1" stop-color="rgb(57.574463%, 41.784668%, 6.315613%)" offset="0.734375"/><stop stop-opacity="1" stop-color="rgb(57.879639%, 42.007446%, 6.349182%)" offset="0.738281"/><stop stop-opacity="1" stop-color="rgb(58.18634%, 42.230225%, 6.382751%)" offset="0.742187"/><stop stop-opacity="1" stop-color="rgb(58.493042%, 42.451477%, 6.416321%)" offset="0.746094"/><stop stop-opacity="1" stop-color="rgb(58.799744%, 42.674255%, 6.44989%)" offset="0.75"/><stop stop-opacity="1" stop-color="rgb(59.104919%, 42.895508%, 6.483459%)" offset="0.753906"/><stop stop-opacity="1" stop-color="rgb(59.411621%, 43.118286%, 6.517029%)" offset="0.757812"/><stop stop-opacity="1" stop-color="rgb(59.716797%, 43.341064%, 6.550598%)" offset="0.761719"/><stop stop-opacity="1" stop-color="rgb(60.023499%, 43.563843%, 6.584167%)" offset="0.765625"/><stop stop-opacity="1" stop-color="rgb(60.3302%, 43.785095%, 6.617737%)" offset="0.769531"/><stop stop-opacity="1" stop-color="rgb(60.636902%, 44.007874%, 6.651306%)" offset="0.773438"/><stop stop-opacity="1" stop-color="rgb(60.942078%, 44.229126%, 6.684875%)" offset="0.777344"/><stop stop-opacity="1" stop-color="rgb(61.248779%, 44.451904%, 6.718445%)" offset="0.78125"/><stop stop-opacity="1" stop-color="rgb(61.555481%, 44.674683%, 6.752014%)" offset="0.785156"/><stop stop-opacity="1" stop-color="rgb(61.862183%, 44.897461%, 6.785583%)" offset="0.789062"/><stop stop-opacity="1" stop-color="rgb(62.167358%, 45.118713%, 6.819153%)" offset="0.792969"/><stop stop-opacity="1" stop-color="rgb(62.47406%, 45.341492%, 6.852722%)" offset="0.796875"/><stop stop-opacity="1" stop-color="rgb(62.780762%, 45.562744%, 6.886292%)" offset="0.800781"/><stop stop-opacity="1" stop-color="rgb(63.087463%, 45.785522%, 6.919861%)" offset="0.804688"/><stop stop-opacity="1" stop-color="rgb(63.392639%, 46.008301%, 6.95343%)" offset="0.808594"/><stop stop-opacity="1" stop-color="rgb(63.699341%, 46.231079%, 6.987%)" offset="0.8125"/><stop stop-opacity="1" stop-color="rgb(64.004517%, 46.452332%, 7.020569%)" offset="0.816406"/><stop stop-opacity="1" stop-color="rgb(64.311218%, 46.67511%, 7.054138%)" offset="0.820312"/><stop stop-opacity="1" stop-color="rgb(64.61792%, 46.896362%, 7.087708%)" offset="0.824219"/><stop stop-opacity="1" stop-color="rgb(64.924622%, 47.119141%, 7.121277%)" offset="0.828125"/><stop stop-opacity="1" stop-color="rgb(65.229797%, 47.341919%, 7.154846%)" offset="0.832031"/><stop stop-opacity="1" stop-color="rgb(65.536499%, 47.564697%, 7.188416%)" offset="0.835938"/><stop stop-opacity="1" stop-color="rgb(65.843201%, 47.78595%, 7.221985%)" offset="0.839844"/><stop stop-opacity="1" stop-color="rgb(66.149902%, 48.008728%, 7.255554%)" offset="0.84375"/><stop stop-opacity="1" stop-color="rgb(66.455078%, 48.22998%, 7.289124%)" offset="0.847656"/><stop stop-opacity="1" stop-color="rgb(66.76178%, 48.452759%, 7.322693%)" offset="0.851562"/><stop stop-opacity="1" stop-color="rgb(67.066956%, 48.675537%, 7.356262%)" offset="0.855469"/><stop stop-opacity="1" stop-color="rgb(67.373657%, 48.898315%, 7.389832%)" offset="0.859375"/><stop stop-opacity="1" stop-color="rgb(67.680359%, 49.119568%, 7.423401%)" offset="0.863281"/><stop stop-opacity="1" stop-color="rgb(67.987061%, 49.342346%, 7.45697%)" offset="0.867188"/><stop stop-opacity="1" stop-color="rgb(68.292236%, 49.563599%, 7.49054%)" offset="0.871094"/><stop stop-opacity="1" stop-color="rgb(68.598938%, 49.786377%, 7.524109%)" offset="0.875"/><stop stop-opacity="1" stop-color="rgb(68.90564%, 50.009155%, 7.557678%)" offset="0.878906"/><stop stop-opacity="1" stop-color="rgb(69.212341%, 50.231934%, 7.591248%)" offset="0.882812"/><stop stop-opacity="1" stop-color="rgb(69.517517%, 50.453186%, 7.624817%)" offset="0.886719"/><stop stop-opacity="1" stop-color="rgb(69.824219%, 50.675964%, 7.658386%)" offset="0.890625"/><stop stop-opacity="1" stop-color="rgb(70.129395%, 50.897217%, 7.691956%)" offset="0.894531"/><stop stop-opacity="1" stop-color="rgb(70.436096%, 51.119995%, 7.725525%)" offset="0.898438"/><stop stop-opacity="1" stop-color="rgb(70.742798%, 51.342773%, 7.759094%)" offset="0.902344"/><stop stop-opacity="1" stop-color="rgb(71.0495%, 51.565552%, 7.792664%)" offset="0.90625"/><stop stop-opacity="1" stop-color="rgb(71.354675%, 51.786804%, 7.826233%)" offset="0.910156"/><stop stop-opacity="1" stop-color="rgb(71.661377%, 52.009583%, 7.859802%)" offset="0.914062"/><stop stop-opacity="1" stop-color="rgb(71.968079%, 52.230835%, 7.893372%)" offset="0.917969"/><stop stop-opacity="1" stop-color="rgb(72.27478%, 52.453613%, 7.926941%)" offset="0.921875"/><stop stop-opacity="1" stop-color="rgb(72.579956%, 52.676392%, 7.96051%)" offset="0.925781"/><stop stop-opacity="1" stop-color="rgb(72.886658%, 52.89917%, 7.99408%)" offset="0.929688"/><stop stop-opacity="1" stop-color="rgb(73.191833%, 53.120422%, 8.027649%)" offset="0.933594"/><stop stop-opacity="1" stop-color="rgb(73.498535%, 53.343201%, 8.061218%)" offset="0.9375"/><stop stop-opacity="1" stop-color="rgb(73.805237%, 53.564453%, 8.094788%)" offset="0.941406"/><stop stop-opacity="1" stop-color="rgb(74.111938%, 53.787231%, 8.128357%)" offset="0.945312"/><stop stop-opacity="1" stop-color="rgb(74.417114%, 54.01001%, 8.161926%)" offset="0.949219"/><stop stop-opacity="1" stop-color="rgb(74.723816%, 54.232788%, 8.195496%)" offset="0.953125"/><stop stop-opacity="1" stop-color="rgb(75.030518%, 54.454041%, 8.229065%)" offset="0.957031"/><stop stop-opacity="1" stop-color="rgb(75.337219%, 54.676819%, 8.262634%)" offset="0.960938"/><stop stop-opacity="1" stop-color="rgb(75.642395%, 54.898071%, 8.296204%)" offset="0.964844"/><stop stop-opacity="1" stop-color="rgb(75.949097%, 55.12085%, 8.329773%)" offset="0.96875"/><stop stop-opacity="1" stop-color="rgb(76.254272%, 55.342102%, 8.363342%)" offset="0.972656"/><stop stop-opacity="1" stop-color="rgb(76.560974%, 55.56488%, 8.396912%)" offset="0.976562"/><stop stop-opacity="1" stop-color="rgb(76.867676%, 55.787659%, 8.430481%)" offset="0.980469"/><stop stop-opacity="1" stop-color="rgb(77.174377%, 56.010437%, 8.465576%)" offset="0.984375"/><stop stop-opacity="1" stop-color="rgb(77.479553%, 56.231689%, 8.499146%)" offset="0.988281"/><stop stop-opacity="1" stop-color="rgb(77.786255%, 56.454468%, 8.532715%)" offset="0.992188"/><stop stop-opacity="1" stop-color="rgb(78.092957%, 56.67572%, 8.566284%)" offset="0.996094"/><stop stop-opacity="1" stop-color="rgb(78.399658%, 56.898499%, 8.599854%)" offset="1"/></linearGradient><clipPath id="5fc96b8ce8"><path d="M 78.421875 37 L 296.671875 37 L 296.671875 276.75 L 78.421875 276.75 Z M 78.421875 37 " clip-rule="nonzero"/></clipPath><clipPath id="d2675708c4"><path d="M 195 146 L 360 146 L 360 375 L 195 375 Z M 195 146 " clip-rule="nonzero"/></clipPath><clipPath id="2934693073"><path d="M 189.007812 365.136719 L 326.125 141.292969 L 368.335938 167.152344 L 231.21875 390.992188 Z M 189.007812 365.136719 " clip-rule="nonzero"/></clipPath><clipPath id="227b1412bf"><path d="M 189.007812 365.136719 L 326.125 141.292969 L 368.335938 167.152344 L 231.21875 390.992188 Z M 189.007812 365.136719 " clip-rule="nonzero"/></clipPath><clipPath id="b7ed34fd8d"><path d="M 189.007812 365.136719 L 326.125 141.292969 L 368.335938 167.152344 L 231.21875 390.992188 Z M 189.007812 365.136719 " clip-rule="nonzero"/></clipPath></defs><rect x="-37.5" width="450" fill="#ffffff" y="-37.499999" height="449.999989" fill-opacity="1"/><rect x="-37.5" fill="url(#9ddf02ea56)" width="450" y="-37.499999" height="449.999989"/><g clip-path="url(#5fc96b8ce8)"><path fill="#ffffff" d="M 221.511719 156.777344 L 295.664062 45.550781 C 296.773438 43.882812 296.882812 41.738281 295.9375 39.96875 C 294.988281 38.203125 293.144531 37.09375 291.136719 37.09375 L 251.207031 37.09375 C 249.425781 37.09375 247.757812 37.964844 246.738281 39.425781 L 187.773438 124.136719 L 128.800781 39.425781 C 127.78125 37.964844 126.117188 37.09375 124.339844 37.09375 L 84.40625 37.09375 C 82.398438 37.09375 80.554688 38.195312 79.609375 39.964844 C 78.660156 41.734375 78.769531 43.882812 79.878906 45.546875 L 154.03125 156.777344 L 79.878906 268.007812 C 78.769531 269.675781 78.660156 271.820312 79.609375 273.589844 C 80.554688 275.355469 82.398438 276.464844 84.40625 276.464844 L 124.339844 276.464844 C 126.117188 276.464844 127.789062 275.59375 128.804688 274.132812 L 187.773438 189.421875 L 246.746094 274.132812 C 247.761719 275.59375 249.425781 276.464844 251.207031 276.464844 L 291.136719 276.464844 C 293.144531 276.464844 294.988281 275.363281 295.9375 273.59375 C 296.882812 271.824219 296.773438 269.675781 295.664062 268.011719 Z M 221.511719 156.777344 " fill-opacity="1" fill-rule="nonzero"/></g><g clip-path="url(#d2675708c4)"><g clip-path="url(#2934693073)"><g clip-path="url(#227b1412bf)"><g clip-path="url(#b7ed34fd8d)"><path fill="#ffffff" d="M 324.511719 152.378906 C 323.28125 153.378906 322.070312 154.972656 320.867188 156.609375 C 320.847656 156.4375 320.738281 156.308594 320.558594 156.214844 C 319.933594 157.164062 320.019531 157.773438 319.292969 158.769531 C 319.285156 158.316406 318.953125 158.476562 318.71875 159.042969 C 318.644531 158.589844 319.375 157.746094 319.652344 157.949219 C 319.742188 157.738281 319.546875 157.671875 319.449219 157.828125 C 321.09375 155.445312 322.238281 152.652344 323.957031 150.800781 C 322.335938 151.511719 319.890625 155.546875 318.25 157.101562 C 318.089844 156.84375 318.71875 156.101562 318.90625 156.460938 C 318.929688 156.199219 319.152344 155.839844 318.972656 155.671875 C 320.304688 154.230469 321.570312 152.441406 322.488281 150.746094 C 324.351562 149.3125 326.179688 146.964844 328.09375 146.660156 C 328.945312 147.089844 329.242188 147.570312 329.996094 147.808594 C 330.546875 148.808594 331.035156 149.839844 331.007812 151.113281 C 332.234375 150.957031 333.085938 150.949219 333.957031 151.4375 C 334 151.734375 333.640625 152.777344 334.183594 152.195312 C 334.117188 152.585938 334.039062 152.984375 334.035156 153.347656 C 334.34375 153.429688 334.878906 152.714844 334.910156 153.253906 C 334.671875 153.828125 334.410156 153.75 334.167969 154.257812 C 334.824219 154.5 335.75 153.539062 336.6875 153.703125 C 337.84375 153.902344 338.535156 155.273438 339.710938 155.9375 C 338.8125 157.425781 340.601562 157.796875 339.179688 159.765625 C 340.773438 158.597656 342.824219 156.726562 344.0625 154.832031 C 344.679688 154.730469 346.058594 154.886719 345.867188 155.917969 C 346.15625 155.851562 346.445312 155.726562 346.734375 155.613281 C 346.789062 156.078125 345.800781 157.164062 346.59375 156.976562 C 345.917969 158.640625 344.359375 160.378906 344.546875 161.960938 C 344.816406 162.097656 345.050781 161.492188 345.308594 161.382812 C 345.589844 161.488281 345.71875 162.019531 346.019531 162.015625 C 346.746094 161.292969 346.65625 161.820312 347.152344 161.039062 C 347.3125 161.398438 347.347656 161.8125 347.011719 162.40625 C 347.550781 162.101562 348.070312 161.25 348.628906 161.308594 C 348.046875 163.328125 347.261719 163.878906 346.171875 165.839844 C 348.355469 163.414062 350.554688 161.390625 352.765625 159.660156 C 353.21875 159.894531 353.671875 160.132812 353.382812 160.445312 C 353.871094 160.351562 353.777344 159.984375 353.742188 159.625 C 354.703125 159.988281 355.28125 160.222656 356.285156 159.707031 C 356.8125 160.441406 355.886719 161.324219 355.511719 162.351562 C 356.074219 162.507812 356.632812 162.566406 357.15625 161.890625 C 357.773438 162.921875 356.070312 165.417969 355.875 166.507812 C 356.683594 166.523438 356.773438 165.273438 357.160156 164.378906 C 357.4375 164.835938 357.675781 164.238281 357.945312 164.4375 C 356.394531 167.191406 357.0625 167.933594 355.0625 170.578125 C 357.617188 172.242188 357.757812 175.0625 359.050781 177.332031 C 358.003906 178.496094 358.089844 179.347656 358.09375 180.277344 C 358.332031 180.515625 358.515625 179.402344 358.75 179.640625 C 358.378906 181.035156 357.304688 182.664062 356.40625 184.441406 C 355.566406 186.105469 354.753906 187.441406 353.726562 188.214844 C 349.941406 196.613281 345.417969 202.242188 340.851562 210.71875 C 340.449219 210.660156 341.015625 210.136719 340.726562 210.023438 C 339.171875 212.535156 337.214844 217.410156 335.144531 219.511719 C 334.941406 220.054688 334.691406 219.527344 334.46875 219.722656 C 333.355469 221.675781 332.945312 223.789062 331.539062 224.589844 C 329.71875 227.21875 328.6875 230.738281 326.867188 232.347656 C 322.128906 240.386719 318.566406 247.015625 313.730469 253.242188 C 311.21875 256.933594 309.582031 260.203125 307.027344 263.917969 C 306.878906 263.089844 307.648438 261.816406 308.167969 260.667969 C 307.144531 261.964844 305.714844 264.226562 304.679688 266.234375 C 301.207031 272.945312 296.953125 279.546875 292.671875 285.941406 C 292.253906 286.101562 292.582031 285.835938 292.460938 285.609375 C 291.351562 286.703125 290.96875 288.328125 290.371094 289.53125 C 290.007812 289.699219 290.109375 289.398438 289.871094 289.226562 C 288.949219 290.445312 289.609375 290.324219 289.261719 291.144531 C 288.925781 291.90625 289.128906 290.777344 288.777344 291.265625 C 288.535156 291.5625 288.746094 291.640625 288.894531 291.75 C 287.695312 293.402344 286.757812 294.734375 285.683594 296.859375 C 285.351562 297.515625 285.503906 296.589844 285.097656 296.921875 C 283.503906 299.445312 281.871094 303.414062 279.894531 306.015625 C 278.957031 307.25 278.59375 308.171875 277.695312 309.667969 C 276.929688 310.941406 275.644531 311.867188 274.613281 313.195312 C 273.769531 314.292969 273.109375 316.289062 271.773438 317.910156 C 271.648438 317.789062 272.011719 317.4375 271.847656 317.335938 C 268.871094 322.59375 265.027344 328.929688 262.554688 334.121094 C 258.570312 339.769531 255.367188 347.167969 252.054688 352.457031 C 251.984375 352.234375 252.070312 351.945312 252.3125 351.574219 C 248.722656 356.535156 243.757812 364.488281 239.914062 371.253906 C 239.585938 371.917969 240.027344 372.210938 239.398438 373.015625 C 239.722656 373.765625 239.019531 375.007812 238.734375 375.933594 C 238.683594 376.09375 238.671875 376.707031 238.574219 376.875 C 237.199219 379.355469 235.796875 377.503906 234.039062 378.285156 C 233.894531 379.179688 233.554688 379.988281 232.753906 380.414062 C 232.15625 379.980469 232.890625 378.90625 232.671875 378.289062 C 232.410156 378.398438 231.828125 378.945312 232.121094 379.203125 C 231.710938 379.421875 231.394531 379.222656 231.421875 378.777344 C 231.042969 379.285156 231.550781 379.363281 231.171875 379.871094 C 230.921875 379.808594 230.96875 379.605469 230.863281 379.476562 C 230.511719 379.925781 230.765625 380.0625 230.402344 380.238281 C 229.757812 379.898438 229.257812 379.488281 229.367188 378.785156 C 226.867188 381.4375 223.738281 382.914062 220.90625 384.675781 C 220.328125 384.230469 220.636719 383.359375 220.054688 382.917969 C 220.824219 380.839844 221.371094 379.535156 222.65625 377.234375 C 222.679688 376.753906 221.929688 377.171875 221.949219 376.597656 C 222.429688 376.019531 222.945312 375.113281 222.738281 374.378906 C 222.253906 374.847656 222.199219 375.191406 221.621094 375.777344 C 221.449219 375.535156 221.660156 375.109375 221.488281 374.867188 C 220.328125 375.480469 220.375 373.402344 219.382812 373.601562 C 219.308594 373.203125 220.0625 372.84375 220.308594 372.292969 C 219.511719 372.898438 220.628906 371.371094 220.546875 370.984375 C 220.300781 370.921875 219.996094 372.386719 219.796875 371.777344 C 219.027344 373.386719 219.078125 372.804688 218.425781 374.058594 C 217.019531 372.945312 217.859375 370.257812 218.640625 367.347656 C 218.128906 367.507812 217.199219 367.726562 216.972656 367.171875 C 216.65625 367.261719 216.625 368.125 216.4375 368.507812 C 216.140625 368.328125 216.335938 367.910156 216.113281 367.691406 C 215.652344 367.902344 216.09375 368.066406 215.753906 368.511719 C 215.441406 367.707031 216.132812 367 216.246094 366.113281 C 215.445312 366.570312 215.367188 367.511719 214.871094 368.394531 C 214.753906 368.234375 215.074219 367.863281 214.65625 367.847656 C 214.375 368.269531 214.816406 368.351562 214.304688 368.878906 C 213.945312 368.765625 214.359375 368.277344 213.886719 368.214844 C 213.527344 369.066406 213.039062 370.074219 212.519531 370.707031 C 212.152344 370.484375 212.460938 369.945312 212.378906 369.585938 C 211.910156 369.988281 211.960938 370.503906 211.5625 371.164062 C 211.085938 370.957031 210.625 370.679688 211.203125 369.496094 C 210.941406 369.40625 210.832031 369.238281 210.792969 369.042969 C 210.125 369.503906 210.125 369.890625 209.21875 371.203125 C 208.625 371.167969 208.820312 370.097656 208.390625 370.082031 C 207.40625 370.054688 207.027344 370.980469 206.320312 372.160156 C 206.214844 371.425781 205.816406 371.496094 205.777344 370.792969 C 205.015625 371.367188 204.988281 370.582031 204.382812 370.160156 C 204.535156 369.882812 204.699219 369.914062 204.847656 369.613281 C 203.992188 368.617188 206.042969 366.230469 205.164062 365.242188 C 204.535156 365.820312 203.84375 364.800781 203.207031 365.308594 C 202.421875 363.664062 199.609375 362.988281 201.242188 360.1875 C 200.714844 360.085938 200.210938 360.457031 199.722656 361.347656 C 199.351562 360.925781 199.007812 361.351562 198.671875 361.953125 C 198.3125 361.402344 198.332031 361.289062 197.691406 361.777344 C 197.230469 360.550781 196.238281 360.1875 195.414062 358.75 C 199.59375 352.707031 204.894531 344.019531 208.582031 338.703125 C 208.671875 338.554688 208.53125 338.511719 208.476562 338.429688 C 209.761719 337.566406 210.574219 335.515625 210.941406 334.113281 C 210.972656 334.238281 211.007812 334.367188 211.148438 334.445312 C 211.621094 333.824219 211.496094 333.484375 211.964844 332.863281 C 212.972656 331.691406 215.304688 326.484375 217.152344 323.347656 C 219.179688 319.90625 220.886719 316.074219 221.472656 314.136719 C 222.65625 314.117188 223.386719 312.183594 224.445312 310.332031 C 224.6875 309.847656 224.964844 310.292969 225.210938 309.964844 C 225.335938 308.765625 227.671875 306.488281 227.753906 305.070312 C 227.546875 304.820312 227.355469 304.914062 227.175781 305.34375 C 227.480469 304.054688 228.691406 302.945312 229.171875 301.574219 C 229.011719 301.613281 228.859375 301.859375 228.691406 301.695312 C 230.070312 299.695312 231.742188 297.695312 233.082031 296.671875 C 233.328125 295.8125 233.914062 295.546875 234.378906 294.96875 C 235.71875 293.3125 236.925781 290.316406 238.210938 288.15625 C 242.171875 281.503906 246.691406 275.355469 250.046875 268.964844 C 250.207031 268.925781 250.359375 268.675781 250.527344 268.84375 C 253.386719 264 255.367188 259.960938 258.289062 255.28125 C 258.054688 255.074219 257.839844 255.441406 257.621094 255.707031 C 258.25 254.4375 259.316406 253.53125 260.136719 252.664062 C 260.078125 251.1875 261.371094 250.859375 262.253906 249.378906 C 262.527344 249.429688 262.222656 249.753906 262.371094 249.867188 C 265.730469 245.152344 266.875 239.796875 270.769531 235.238281 C 270.71875 234.941406 270.800781 234.574219 271.023438 234.144531 C 271.574219 234.679688 270.53125 235.96875 270.347656 236.847656 C 271.785156 234.539062 273.171875 231.539062 275.410156 229.125 C 275.0625 227.59375 277.308594 225.199219 278.382812 222.832031 C 278.570312 222.886719 278.46875 223.078125 278.589844 223.164062 C 279.019531 222.445312 279.464844 222.117188 279.890625 221.460938 C 279.558594 221.242188 279.253906 221.84375 278.949219 222.34375 C 279.195312 220.832031 281.082031 219.660156 280.453125 218.484375 C 281.074219 217.734375 281.410156 217.183594 281.351562 216.539062 C 281.539062 216.59375 281.4375 216.785156 281.5625 216.871094 C 284.683594 213.019531 287.535156 208.210938 290.867188 202.789062 C 290.4375 202.625 290.058594 203.730469 289.640625 203.917969 C 292.292969 198.46875 297.320312 193.574219 299.441406 187.644531 C 298.671875 188.207031 297.691406 189.941406 297.210938 190.449219 C 296.960938 190.726562 296.734375 191.519531 296.46875 191.449219 C 297.566406 189.746094 297.632812 188.96875 298.558594 187.527344 C 298.589844 187.222656 298.421875 187.011719 298.714844 186.585938 C 298.726562 187.042969 299.046875 186.683594 299.316406 186.945312 C 299.8125 186.351562 299.714844 186.035156 299.851562 185.609375 C 300.796875 185.046875 301.09375 184.171875 301.40625 183.023438 C 305.59375 178.363281 308.851562 171.128906 312.816406 165.441406 C 312.4375 167.167969 310.640625 168.984375 310.488281 170.671875 C 310.90625 170.566406 311.269531 169.085938 311.722656 169.757812 C 312.175781 169.144531 311.765625 168.941406 312.15625 168.359375 C 312.402344 168.242188 312.640625 168.386719 312.65625 168.660156 C 313.167969 167.28125 314.609375 165.03125 316.082031 163.886719 C 315.804688 164.339844 315.53125 164.796875 315.253906 165.253906 C 317.421875 162.253906 320.976562 157.75 323.109375 154.027344 C 323.820312 154.011719 323.519531 153.394531 324.511719 152.378906 Z M 256.144531 260.203125 C 256.550781 259.421875 257.152344 258.699219 257.09375 259.53125 C 257.503906 258.9375 257.339844 258.621094 257.523438 258.136719 C 257.132812 258.777344 257.078125 258.359375 257.03125 258.046875 C 257.039062 258.855469 255.539062 259.710938 256.144531 260.203125 Z M 300.5625 186.238281 C 300.421875 186.417969 300.21875 186.457031 300.476562 186.601562 C 300.933594 185.816406 301.292969 185.023438 301.667969 184.625 C 301.214844 184.414062 300.511719 185.722656 300.5625 186.238281 Z M 277.480469 229.539062 C 277.757812 229.90625 278.207031 228.816406 277.941406 228.777344 C 277.703125 229.148438 277.46875 229.136719 277.480469 229.539062 Z M 278.324219 228.59375 C 278.566406 228.042969 279.304688 227.261719 279.230469 226.863281 C 278.6875 227.640625 278.207031 227.808594 278.324219 228.59375 Z M 269.285156 254.03125 C 269.851562 253.78125 270 252.695312 270.410156 252.839844 C 270.691406 252.394531 270.582031 251.890625 270.953125 251.714844 C 270.820312 251.636719 270.6875 251.554688 270.550781 251.476562 C 270.199219 252.292969 269.492188 253.277344 269.285156 254.03125 Z M 317.566406 186.121094 C 317.742188 185.605469 318.160156 184.972656 317.898438 184.664062 C 317.546875 185.265625 317.015625 185.953125 317.566406 186.121094 Z M 320.28125 183.199219 C 321.371094 180.984375 319.441406 183.929688 319.550781 184.414062 C 319.835938 183.898438 320.121094 183.53125 320.28125 183.199219 Z M 242.710938 324.445312 C 242.863281 324.375 243.375 323.578125 243.058594 323.414062 C 242.820312 323.816406 242.464844 324.273438 242.710938 324.445312 Z M 275.820312 282.628906 C 275.566406 282.210938 274.878906 283.292969 274.980469 283.574219 C 275.246094 282.921875 275.558594 283.398438 275.820312 282.628906 Z M 277.285156 280.195312 C 278.28125 278.957031 278.792969 277.726562 279.859375 276.152344 C 279.210938 276.894531 277.414062 279.125 277.285156 280.195312 Z M 282.152344 272.351562 C 281.996094 272.582031 281.847656 272.886719 281.675781 272.683594 C 281.324219 273.730469 280.246094 274.984375 279.84375 275.726562 C 281.191406 274.265625 281.75 273.519531 282.152344 272.351562 Z M 272.933594 288.558594 C 272.464844 289.6875 271.15625 290.882812 271.292969 291.507812 C 272.644531 289.898438 275.15625 286.039062 275.960938 283.753906 C 274.878906 285.289062 274.042969 286.125 273.289062 287.738281 C 274.371094 286.785156 272.519531 288.710938 272.550781 288.742188 C 272.671875 288.585938 272.804688 288.574219 272.933594 288.558594 Z M 283.191406 271.527344 C 283.40625 271.171875 283.617188 270.820312 283.832031 270.464844 C 283.46875 270.15625 283.046875 271.394531 283.191406 271.527344 Z M 276.238281 283.296875 C 276.1875 283.394531 276.148438 283.484375 276.246094 283.507812 C 276.703125 282.875 277.832031 280.730469 276.789062 282.382812 C 276.378906 282.566406 276.582031 282.929688 276.230469 283.085938 C 276.164062 283.054688 276.097656 283.035156 276.035156 283.175781 C 276.105469 283.214844 276.171875 283.257812 276.238281 283.296875 Z M 271.617188 292.324219 C 271.726562 292.601562 271.507812 293.03125 271.5625 293.328125 C 273.734375 290.128906 277.042969 284.421875 279.253906 280.554688 C 276.660156 283.585938 274.394531 288.558594 271.617188 292.324219 Z M 342.199219 186.039062 C 343.78125 184.871094 345.398438 182.757812 346.480469 180.746094 C 345.175781 182.675781 342.863281 184.257812 342.199219 186.039062 Z M 339.167969 193.335938 C 339.765625 193.03125 340.492188 191.707031 340.542969 191.054688 C 340.746094 191.234375 340.941406 191.246094 341.128906 190.992188 C 341.082031 190.605469 340.863281 190.988281 340.816406 190.597656 C 339.914062 191.195312 339.570312 192.207031 339.167969 193.335938 Z M 337.621094 196.132812 C 337.953125 195.503906 338.308594 195.394531 338.636719 194.671875 C 338.097656 194.410156 337.417969 195.996094 337.621094 196.132812 Z M 346.492188 183.445312 C 346.878906 183.003906 347.136719 182.542969 347.691406 181.683594 C 347.222656 181.417969 346.71875 182.886719 346.492188 183.445312 Z M 268.484375 321.109375 C 268.425781 321.589844 267.402344 322.46875 267.390625 323.148438 C 267.898438 322.996094 268.707031 321.550781 268.484375 321.109375 Z M 309.332031 255.566406 C 309.070312 256.167969 308.578125 256.261719 308.601562 256.78125 C 309.398438 256.496094 310.027344 255.148438 310.640625 254.074219 C 311.628906 252.34375 312.359375 250.582031 313.5625 248.996094 C 312.03125 250.273438 310.011719 254.253906 309.332031 255.566406 Z M 314.925781 246.503906 C 315.457031 245.910156 316.300781 244.28125 316.652344 243.1875 C 316.089844 244.371094 314.425781 245.980469 314.925781 246.503906 Z M 320.316406 237.105469 C 320.738281 237.410156 319.375 238.5625 319.800781 238.867188 C 320.421875 238.207031 320.617188 237.582031 320.894531 236.828125 C 321.199219 236.914062 321.300781 236.914062 321.765625 236.734375 C 322.820312 233.046875 326.085938 230.851562 327.054688 227.277344 C 324.578125 230.347656 322.929688 234.128906 320.316406 237.105469 Z M 303.859375 265.328125 C 303.390625 266.097656 302.367188 266.816406 302.78125 267.578125 C 304.609375 264.949219 306.191406 262.199219 307.328125 259.125 C 306.113281 261.085938 305.023438 263.421875 303.859375 265.328125 Z M 303.859375 265.328125 " fill-opacity="1" fill-rule="evenodd"/></g></g></g></g></svg>