<svg xmlns="http://www.w3.org/2000/svg" xmlns:xlink="http://www.w3.org/1999/xlink" width="500" zoomAndPan="magnify" viewBox="0 0 375 374.999991" height="500" preserveAspectRatio="xMidYMid meet" version="1.0"><defs><clipPath id="14663911af"><path d="M 78.421875 37 L 296.671875 37 L 296.671875 276.75 L 78.421875 276.75 Z M 78.421875 37 " clip-rule="nonzero"/></clipPath><clipPath id="6719406cc7"><path d="M 195 146 L 360 146 L 360 375 L 195 375 Z M 195 146 " clip-rule="nonzero"/></clipPath><clipPath id="4410ca124d"><path d="M 189.007812 365.136719 L 326.125 141.292969 L 368.335938 167.152344 L 231.21875 390.992188 Z M 189.007812 365.136719 " clip-rule="nonzero"/></clipPath><clipPath id="e8f5c54147"><path d="M 189.007812 365.136719 L 326.125 141.292969 L 368.335938 167.152344 L 231.21875 390.992188 Z M 189.007812 365.136719 " clip-rule="nonzero"/></clipPath><clipPath id="5febef5620"><path d="M 189.007812 365.136719 L 326.125 141.292969 L 368.335938 167.152344 L 231.21875 390.992188 Z M 189.007812 365.136719 " clip-rule="nonzero"/></clipPath></defs><rect x="-37.5" width="450" fill="#ffffff" y="-37.499999" height="449.999989" fill-opacity="1"/><rect x="-37.5" width="450" fill="#000000" y="-37.499999" height="449.999989" fill-opacity="1"/><g clip-path="url(#14663911af)"><path fill="#ffffff" d="M 221.511719 156.777344 L 295.664062 45.550781 C 296.773438 43.882812 296.882812 41.738281 295.9375 39.96875 C 294.988281 38.203125 293.144531 37.09375 291.136719 37.09375 L 251.207031 37.09375 C 249.425781 37.09375 247.757812 37.964844 246.738281 39.425781 L 187.773438 124.136719 L 128.800781 39.425781 C 127.78125 37.964844 126.117188 37.09375 124.339844 37.09375 L 84.40625 37.09375 C 82.398438 37.09375 80.554688 38.195312 79.609375 39.964844 C 78.660156 41.734375 78.769531 43.882812 79.878906 45.546875 L 154.03125 156.777344 L 79.878906 268.007812 C 78.769531 269.675781 78.660156 271.820312 79.609375 273.589844 C 80.554688 275.355469 82.398438 276.464844 84.40625 276.464844 L 124.339844 276.464844 C 126.117188 276.464844 127.789062 275.59375 128.804688 274.132812 L 187.773438 189.421875 L 246.746094 274.132812 C 247.761719 275.59375 249.425781 276.464844 251.207031 276.464844 L 291.136719 276.464844 C 293.144531 276.464844 294.988281 275.363281 295.9375 273.59375 C 296.882812 271.824219 296.773438 269.675781 295.664062 268.011719 Z M 221.511719 156.777344 " fill-opacity="1" fill-rule="nonzero"/></g><g clip-path="url(#6719406cc7)"><g clip-path="url(#4410ca124d)"><g clip-path="url(#e8f5c54147)"><g clip-path="url(#5febef5620)"><path fill="#ffffff" d="M 324.511719 152.378906 C 323.28125 153.378906 322.070312 154.972656 320.867188 156.609375 C 320.847656 156.4375 320.738281 156.308594 320.558594 156.214844 C 319.933594 157.164062 320.019531 157.773438 319.292969 158.769531 C 319.285156 158.316406 318.953125 158.476562 318.71875 159.042969 C 318.644531 158.589844 319.375 157.746094 319.652344 157.949219 C 319.742188 157.738281 319.546875 157.671875 319.449219 157.828125 C 321.09375 155.445312 322.238281 152.652344 323.957031 150.800781 C 322.335938 151.511719 319.890625 155.546875 318.25 157.101562 C 318.089844 156.84375 318.71875 156.101562 318.90625 156.460938 C 318.929688 156.199219 319.152344 155.839844 318.972656 155.671875 C 320.304688 154.230469 321.570312 152.441406 322.488281 150.746094 C 324.351562 149.3125 326.179688 146.964844 328.09375 146.660156 C 328.945312 147.089844 329.242188 147.570312 329.996094 147.808594 C 330.546875 148.808594 331.035156 149.839844 331.007812 151.113281 C 332.234375 150.957031 333.085938 150.949219 333.957031 151.4375 C 334 151.734375 333.640625 152.777344 334.183594 152.195312 C 334.117188 152.585938 334.039062 152.984375 334.035156 153.347656 C 334.34375 153.429688 334.878906 152.714844 334.910156 153.253906 C 334.671875 153.828125 334.410156 153.75 334.167969 154.257812 C 334.824219 154.5 335.75 153.539062 336.6875 153.703125 C 337.84375 153.902344 338.535156 155.273438 339.710938 155.9375 C 338.8125 157.425781 340.601562 157.796875 339.179688 159.765625 C 340.773438 158.597656 342.824219 156.726562 344.0625 154.832031 C 344.679688 154.730469 346.058594 154.886719 345.867188 155.917969 C 346.15625 155.851562 346.445312 155.726562 346.734375 155.613281 C 346.789062 156.078125 345.800781 157.164062 346.59375 156.976562 C 345.917969 158.640625 344.359375 160.378906 344.546875 161.960938 C 344.816406 162.097656 345.050781 161.492188 345.308594 161.382812 C 345.589844 161.488281 345.71875 162.019531 346.019531 162.015625 C 346.746094 161.292969 346.65625 161.820312 347.152344 161.039062 C 347.3125 161.398438 347.347656 161.8125 347.011719 162.40625 C 347.550781 162.101562 348.070312 161.25 348.628906 161.308594 C 348.046875 163.328125 347.261719 163.878906 346.171875 165.839844 C 348.355469 163.414062 350.554688 161.390625 352.765625 159.660156 C 353.21875 159.894531 353.671875 160.132812 353.382812 160.445312 C 353.871094 160.351562 353.777344 159.984375 353.742188 159.625 C 354.703125 159.988281 355.28125 160.222656 356.285156 159.707031 C 356.8125 160.441406 355.886719 161.324219 355.511719 162.351562 C 356.074219 162.507812 356.632812 162.566406 357.15625 161.890625 C 357.773438 162.921875 356.070312 165.417969 355.875 166.507812 C 356.683594 166.523438 356.773438 165.273438 357.160156 164.378906 C 357.4375 164.835938 357.675781 164.238281 357.945312 164.4375 C 356.394531 167.191406 357.0625 167.933594 355.0625 170.578125 C 357.617188 172.242188 357.757812 175.0625 359.050781 177.332031 C 358.003906 178.496094 358.089844 179.347656 358.09375 180.277344 C 358.332031 180.515625 358.515625 179.402344 358.75 179.640625 C 358.378906 181.035156 357.304688 182.664062 356.40625 184.441406 C 355.566406 186.105469 354.753906 187.441406 353.726562 188.214844 C 349.941406 196.613281 345.417969 202.242188 340.851562 210.71875 C 340.449219 210.660156 341.015625 210.136719 340.726562 210.023438 C 339.171875 212.535156 337.214844 217.410156 335.144531 219.511719 C 334.941406 220.054688 334.691406 219.527344 334.46875 219.722656 C 333.355469 221.675781 332.945312 223.789062 331.539062 224.589844 C 329.71875 227.21875 328.6875 230.738281 326.867188 232.347656 C 322.128906 240.386719 318.566406 247.015625 313.730469 253.242188 C 311.21875 256.933594 309.582031 260.203125 307.027344 263.917969 C 306.878906 263.089844 307.648438 261.816406 308.167969 260.667969 C 307.144531 261.964844 305.714844 264.226562 304.679688 266.234375 C 301.207031 272.945312 296.953125 279.546875 292.671875 285.941406 C 292.253906 286.101562 292.582031 285.835938 292.460938 285.609375 C 291.351562 286.703125 290.96875 288.328125 290.371094 289.53125 C 290.007812 289.699219 290.109375 289.398438 289.871094 289.226562 C 288.949219 290.445312 289.609375 290.324219 289.261719 291.144531 C 288.925781 291.90625 289.128906 290.777344 288.777344 291.265625 C 288.535156 291.5625 288.746094 291.640625 288.894531 291.75 C 287.695312 293.402344 286.757812 294.734375 285.683594 296.859375 C 285.351562 297.515625 285.503906 296.589844 285.097656 296.921875 C 283.503906 299.445312 281.871094 303.414062 279.894531 306.015625 C 278.957031 307.25 278.59375 308.171875 277.695312 309.667969 C 276.929688 310.941406 275.644531 311.867188 274.613281 313.195312 C 273.769531 314.292969 273.109375 316.289062 271.773438 317.910156 C 271.648438 317.789062 272.011719 317.4375 271.847656 317.335938 C 268.871094 322.59375 265.027344 328.929688 262.554688 334.121094 C 258.570312 339.769531 255.367188 347.167969 252.054688 352.457031 C 251.984375 352.234375 252.070312 351.945312 252.3125 351.574219 C 248.722656 356.535156 243.757812 364.488281 239.914062 371.253906 C 239.585938 371.917969 240.027344 372.210938 239.398438 373.015625 C 239.722656 373.765625 239.019531 375.007812 238.734375 375.933594 C 238.683594 376.09375 238.671875 376.707031 238.574219 376.875 C 237.199219 379.355469 235.796875 377.503906 234.039062 378.285156 C 233.894531 379.179688 233.554688 379.988281 232.753906 380.414062 C 232.15625 379.980469 232.890625 378.90625 232.671875 378.289062 C 232.410156 378.398438 231.828125 378.945312 232.121094 379.203125 C 231.710938 379.421875 231.394531 379.222656 231.421875 378.777344 C 231.042969 379.285156 231.550781 379.363281 231.171875 379.871094 C 230.921875 379.808594 230.96875 379.605469 230.863281 379.476562 C 230.511719 379.925781 230.765625 380.0625 230.402344 380.238281 C 229.757812 379.898438 229.257812 379.488281 229.367188 378.785156 C 226.867188 381.4375 223.738281 382.914062 220.90625 384.675781 C 220.328125 384.230469 220.636719 383.359375 220.054688 382.917969 C 220.824219 380.839844 221.371094 379.535156 222.65625 377.234375 C 222.679688 376.753906 221.929688 377.171875 221.949219 376.597656 C 222.429688 376.019531 222.945312 375.113281 222.738281 374.378906 C 222.253906 374.847656 222.199219 375.191406 221.621094 375.777344 C 221.449219 375.535156 221.660156 375.109375 221.488281 374.867188 C 220.328125 375.480469 220.375 373.402344 219.382812 373.601562 C 219.308594 373.203125 220.0625 372.84375 220.308594 372.292969 C 219.511719 372.898438 220.628906 371.371094 220.546875 370.984375 C 220.300781 370.921875 219.996094 372.386719 219.796875 371.777344 C 219.027344 373.386719 219.078125 372.804688 218.425781 374.058594 C 217.019531 372.945312 217.859375 370.257812 218.640625 367.347656 C 218.128906 367.507812 217.199219 367.726562 216.972656 367.171875 C 216.65625 367.261719 216.625 368.125 216.4375 368.507812 C 216.140625 368.328125 216.335938 367.910156 216.113281 367.691406 C 215.652344 367.902344 216.09375 368.066406 215.753906 368.511719 C 215.441406 367.707031 216.132812 367 216.246094 366.113281 C 215.445312 366.570312 215.367188 367.511719 214.871094 368.394531 C 214.753906 368.234375 215.074219 367.863281 214.65625 367.847656 C 214.375 368.269531 214.816406 368.351562 214.304688 368.878906 C 213.945312 368.765625 214.359375 368.277344 213.886719 368.214844 C 213.527344 369.066406 213.039062 370.074219 212.519531 370.707031 C 212.152344 370.484375 212.460938 369.945312 212.378906 369.585938 C 211.910156 369.988281 211.960938 370.503906 211.5625 371.164062 C 211.085938 370.957031 210.625 370.679688 211.203125 369.496094 C 210.941406 369.40625 210.832031 369.238281 210.792969 369.042969 C 210.125 369.503906 210.125 369.890625 209.21875 371.203125 C 208.625 371.167969 208.820312 370.097656 208.390625 370.082031 C 207.40625 370.054688 207.027344 370.980469 206.320312 372.160156 C 206.214844 371.425781 205.816406 371.496094 205.777344 370.792969 C 205.015625 371.367188 204.988281 370.582031 204.382812 370.160156 C 204.535156 369.882812 204.699219 369.914062 204.847656 369.613281 C 203.992188 368.617188 206.042969 366.230469 205.164062 365.242188 C 204.535156 365.820312 203.84375 364.800781 203.207031 365.308594 C 202.421875 363.664062 199.609375 362.988281 201.242188 360.1875 C 200.714844 360.085938 200.210938 360.457031 199.722656 361.347656 C 199.351562 360.925781 199.007812 361.351562 198.671875 361.953125 C 198.3125 361.402344 198.332031 361.289062 197.691406 361.777344 C 197.230469 360.550781 196.238281 360.1875 195.414062 358.75 C 199.59375 352.707031 204.894531 344.019531 208.582031 338.703125 C 208.671875 338.554688 208.53125 338.511719 208.476562 338.429688 C 209.761719 337.566406 210.574219 335.515625 210.941406 334.113281 C 210.972656 334.238281 211.007812 334.367188 211.148438 334.445312 C 211.621094 333.824219 211.496094 333.484375 211.964844 332.863281 C 212.972656 331.691406 215.304688 326.484375 217.152344 323.347656 C 219.179688 319.90625 220.886719 316.074219 221.472656 314.136719 C 222.65625 314.117188 223.386719 312.183594 224.445312 310.332031 C 224.6875 309.847656 224.964844 310.292969 225.210938 309.964844 C 225.335938 308.765625 227.671875 306.488281 227.753906 305.070312 C 227.546875 304.820312 227.355469 304.914062 227.175781 305.34375 C 227.480469 304.054688 228.691406 302.945312 229.171875 301.574219 C 229.011719 301.613281 228.859375 301.859375 228.691406 301.695312 C 230.070312 299.695312 231.742188 297.695312 233.082031 296.671875 C 233.328125 295.8125 233.914062 295.546875 234.378906 294.96875 C 235.71875 293.3125 236.925781 290.316406 238.210938 288.15625 C 242.171875 281.503906 246.691406 275.355469 250.046875 268.964844 C 250.207031 268.925781 250.359375 268.675781 250.527344 268.84375 C 253.386719 264 255.367188 259.960938 258.289062 255.28125 C 258.054688 255.074219 257.839844 255.441406 257.621094 255.707031 C 258.25 254.4375 259.316406 253.53125 260.136719 252.664062 C 260.078125 251.1875 261.371094 250.859375 262.253906 249.378906 C 262.527344 249.429688 262.222656 249.753906 262.371094 249.867188 C 265.730469 245.152344 266.875 239.796875 270.769531 235.238281 C 270.71875 234.941406 270.800781 234.574219 271.023438 234.144531 C 271.574219 234.679688 270.53125 235.96875 270.347656 236.847656 C 271.785156 234.539062 273.171875 231.539062 275.410156 229.125 C 275.0625 227.59375 277.308594 225.199219 278.382812 222.832031 C 278.570312 222.886719 278.46875 223.078125 278.589844 223.164062 C 279.019531 222.445312 279.464844 222.117188 279.890625 221.460938 C 279.558594 221.242188 279.253906 221.84375 278.949219 222.34375 C 279.195312 220.832031 281.082031 219.660156 280.453125 218.484375 C 281.074219 217.734375 281.410156 217.183594 281.351562 216.539062 C 281.539062 216.59375 281.4375 216.785156 281.5625 216.871094 C 284.683594 213.019531 287.535156 208.210938 290.867188 202.789062 C 290.4375 202.625 290.058594 203.730469 289.640625 203.917969 C 292.292969 198.46875 297.320312 193.574219 299.441406 187.644531 C 298.671875 188.207031 297.691406 189.941406 297.210938 190.449219 C 296.960938 190.726562 296.734375 191.519531 296.46875 191.449219 C 297.566406 189.746094 297.632812 188.96875 298.558594 187.527344 C 298.589844 187.222656 298.421875 187.011719 298.714844 186.585938 C 298.726562 187.042969 299.046875 186.683594 299.316406 186.945312 C 299.8125 186.351562 299.714844 186.035156 299.851562 185.609375 C 300.796875 185.046875 301.09375 184.171875 301.40625 183.023438 C 305.59375 178.363281 308.851562 171.128906 312.816406 165.441406 C 312.4375 167.167969 310.640625 168.984375 310.488281 170.671875 C 310.90625 170.566406 311.269531 169.085938 311.722656 169.757812 C 312.175781 169.144531 311.765625 168.941406 312.15625 168.359375 C 312.402344 168.242188 312.640625 168.386719 312.65625 168.660156 C 313.167969 167.28125 314.609375 165.03125 316.082031 163.886719 C 315.804688 164.339844 315.53125 164.796875 315.253906 165.253906 C 317.421875 162.253906 320.976562 157.75 323.109375 154.027344 C 323.820312 154.011719 323.519531 153.394531 324.511719 152.378906 Z M 256.144531 260.203125 C 256.550781 259.421875 257.152344 258.699219 257.09375 259.53125 C 257.503906 258.9375 257.339844 258.621094 257.523438 258.136719 C 257.132812 258.777344 257.078125 258.359375 257.03125 258.046875 C 257.039062 258.855469 255.539062 259.710938 256.144531 260.203125 Z M 300.5625 186.238281 C 300.421875 186.417969 300.21875 186.457031 300.476562 186.601562 C 300.933594 185.816406 301.292969 185.023438 301.667969 184.625 C 301.214844 184.414062 300.511719 185.722656 300.5625 186.238281 Z M 277.480469 229.539062 C 277.757812 229.90625 278.207031 228.816406 277.941406 228.777344 C 277.703125 229.148438 277.46875 229.136719 277.480469 229.539062 Z M 278.324219 228.59375 C 278.566406 228.042969 279.304688 227.261719 279.230469 226.863281 C 278.6875 227.640625 278.207031 227.808594 278.324219 228.59375 Z M 269.285156 254.03125 C 269.851562 253.78125 270 252.695312 270.410156 252.839844 C 270.691406 252.394531 270.582031 251.890625 270.953125 251.714844 C 270.820312 251.636719 270.6875 251.554688 270.550781 251.476562 C 270.199219 252.292969 269.492188 253.277344 269.285156 254.03125 Z M 317.566406 186.121094 C 317.742188 185.605469 318.160156 184.972656 317.898438 184.664062 C 317.546875 185.265625 317.015625 185.953125 317.566406 186.121094 Z M 320.28125 183.199219 C 321.371094 180.984375 319.441406 183.929688 319.550781 184.414062 C 319.835938 183.898438 320.121094 183.53125 320.28125 183.199219 Z M 242.710938 324.445312 C 242.863281 324.375 243.375 323.578125 243.058594 323.414062 C 242.820312 323.816406 242.464844 324.273438 242.710938 324.445312 Z M 275.820312 282.628906 C 275.566406 282.210938 274.878906 283.292969 274.980469 283.574219 C 275.246094 282.921875 275.558594 283.398438 275.820312 282.628906 Z M 277.285156 280.195312 C 278.28125 278.957031 278.792969 277.726562 279.859375 276.152344 C 279.210938 276.894531 277.414062 279.125 277.285156 280.195312 Z M 282.152344 272.351562 C 281.996094 272.582031 281.847656 272.886719 281.675781 272.683594 C 281.324219 273.730469 280.246094 274.984375 279.84375 275.726562 C 281.191406 274.265625 281.75 273.519531 282.152344 272.351562 Z M 272.933594 288.558594 C 272.464844 289.6875 271.15625 290.882812 271.292969 291.507812 C 272.644531 289.898438 275.15625 286.039062 275.960938 283.753906 C 274.878906 285.289062 274.042969 286.125 273.289062 287.738281 C 274.371094 286.785156 272.519531 288.710938 272.550781 288.742188 C 272.671875 288.585938 272.804688 288.574219 272.933594 288.558594 Z M 283.191406 271.527344 C 283.40625 271.171875 283.617188 270.820312 283.832031 270.464844 C 283.46875 270.15625 283.046875 271.394531 283.191406 271.527344 Z M 276.238281 283.296875 C 276.1875 283.394531 276.148438 283.484375 276.246094 283.507812 C 276.703125 282.875 277.832031 280.730469 276.789062 282.382812 C 276.378906 282.566406 276.582031 282.929688 276.230469 283.085938 C 276.164062 283.054688 276.097656 283.035156 276.035156 283.175781 C 276.105469 283.214844 276.171875 283.257812 276.238281 283.296875 Z M 271.617188 292.324219 C 271.726562 292.601562 271.507812 293.03125 271.5625 293.328125 C 273.734375 290.128906 277.042969 284.421875 279.253906 280.554688 C 276.660156 283.585938 274.394531 288.558594 271.617188 292.324219 Z M 342.199219 186.039062 C 343.78125 184.871094 345.398438 182.757812 346.480469 180.746094 C 345.175781 182.675781 342.863281 184.257812 342.199219 186.039062 Z M 339.167969 193.335938 C 339.765625 193.03125 340.492188 191.707031 340.542969 191.054688 C 340.746094 191.234375 340.941406 191.246094 341.128906 190.992188 C 341.082031 190.605469 340.863281 190.988281 340.816406 190.597656 C 339.914062 191.195312 339.570312 192.207031 339.167969 193.335938 Z M 337.621094 196.132812 C 337.953125 195.503906 338.308594 195.394531 338.636719 194.671875 C 338.097656 194.410156 337.417969 195.996094 337.621094 196.132812 Z M 346.492188 183.445312 C 346.878906 183.003906 347.136719 182.542969 347.691406 181.683594 C 347.222656 181.417969 346.71875 182.886719 346.492188 183.445312 Z M 268.484375 321.109375 C 268.425781 321.589844 267.402344 322.46875 267.390625 323.148438 C 267.898438 322.996094 268.707031 321.550781 268.484375 321.109375 Z M 309.332031 255.566406 C 309.070312 256.167969 308.578125 256.261719 308.601562 256.78125 C 309.398438 256.496094 310.027344 255.148438 310.640625 254.074219 C 311.628906 252.34375 312.359375 250.582031 313.5625 248.996094 C 312.03125 250.273438 310.011719 254.253906 309.332031 255.566406 Z M 314.925781 246.503906 C 315.457031 245.910156 316.300781 244.28125 316.652344 243.1875 C 316.089844 244.371094 314.425781 245.980469 314.925781 246.503906 Z M 320.316406 237.105469 C 320.738281 237.410156 319.375 238.5625 319.800781 238.867188 C 320.421875 238.207031 320.617188 237.582031 320.894531 236.828125 C 321.199219 236.914062 321.300781 236.914062 321.765625 236.734375 C 322.820312 233.046875 326.085938 230.851562 327.054688 227.277344 C 324.578125 230.347656 322.929688 234.128906 320.316406 237.105469 Z M 303.859375 265.328125 C 303.390625 266.097656 302.367188 266.816406 302.78125 267.578125 C 304.609375 264.949219 306.191406 262.199219 307.328125 259.125 C 306.113281 261.085938 305.023438 263.421875 303.859375 265.328125 Z M 303.859375 265.328125 " fill-opacity="1" fill-rule="evenodd"/></g></g></g></g></svg>